<svg width="69" height="62" viewBox="0 0 69 62" fill="none" xmlns="http://www.w3.org/2000/svg">
<ellipse cx="34.5" cy="31" rx="34.5" ry="31" fill="#4C5EDD"/>
<g clip-path="url(#clip0_100_952)">
<path d="M47.5 32.5625H44.375V35.6875H47.5V32.5625Z" fill="white"/>
<path d="M53.75 18.5H16.25V13.8125H50.625V10.6875H16.25C15.4212 10.6875 14.6263 11.0167 14.0403 11.6028C13.4542 12.1888 13.125 12.9837 13.125 13.8125V46.625C13.125 47.4538 13.4542 48.2487 14.0403 48.8347C14.6263 49.4208 15.4212 49.75 16.25 49.75H53.75C54.5788 49.75 55.3737 49.4208 55.9597 48.8347C56.5458 48.2487 56.875 47.4538 56.875 46.625V21.625C56.875 20.7962 56.5458 20.0013 55.9597 19.4153C55.3737 18.8292 54.5788 18.5 53.75 18.5ZM16.25 46.625V21.625H53.75V26.3125H41.25C40.4212 26.3125 39.6263 26.6417 39.0403 27.2278C38.4542 27.8138 38.125 28.6087 38.125 29.4375V38.8125C38.125 39.6413 38.4542 40.4362 39.0403 41.0222C39.6263 41.6083 40.4212 41.9375 41.25 41.9375H53.75V46.625H16.25ZM53.75 29.4375V38.8125H41.25V29.4375H53.75Z" fill="white"/>
</g>
<defs>
<clipPath id="clip0_100_952">
<rect width="50" height="50" fill="white" transform="translate(10 6)"/>
</clipPath>
</defs>
</svg>
