<svg width="57" height="57" viewBox="0 0 57 57" fill="none" xmlns="http://www.w3.org/2000/svg">
<path d="M28.667 42.967C33.8216 42.967 38.0003 38.7883 38.0003 33.6337C38.0003 28.479 33.8216 24.3004 28.667 24.3004C23.5123 24.3004 19.3336 28.479 19.3336 33.6337C19.3336 38.7883 23.5123 42.967 28.667 42.967Z" stroke="#3C50E0" stroke-width="6" stroke-miterlimit="10" stroke-linecap="round" stroke-linejoin="round"/>
<path d="M25.0265 33.8673L26.5432 35.384C26.9865 35.8273 27.7098 35.8273 28.1532 35.4073L32.3065 31.5806" stroke="#3C50E0" stroke-width="6" stroke-linecap="round" stroke-linejoin="round"/>
<path d="M19.3337 51.8333H38.0004C47.3804 51.8333 49.0604 48.0767 49.5504 43.5033L51.3004 24.8367C51.9304 19.1433 50.297 14.5 40.3337 14.5H17.0004C7.03704 14.5 5.4037 19.1433 6.0337 24.8367L7.7837 43.5033C8.2737 48.0767 9.9537 51.8333 19.3337 51.8333Z" stroke="#3C50E0" stroke-width="6" stroke-miterlimit="10" stroke-linecap="round" stroke-linejoin="round"/>
<path d="M19.3336 14.4999V12.6332C19.3336 8.50323 19.3336 5.16656 26.8003 5.16656H30.5336C38.0003 5.16656 38.0003 8.50323 38.0003 12.6332V14.4999" stroke="#3C50E0" stroke-width="6" stroke-miterlimit="10" stroke-linecap="round" stroke-linejoin="round"/>
<path d="M51.1836 26.1666C47.1469 29.1066 42.6669 31.1599 38.0236 32.3266" stroke="#3C50E0" stroke-width="6" stroke-miterlimit="10" stroke-linecap="round" stroke-linejoin="round"/>
<path d="M6.77942 26.7955C10.6761 29.4555 14.9228 31.3455 19.3328 32.4188" stroke="#3C50E0" stroke-width="6" stroke-miterlimit="10" stroke-linecap="round" stroke-linejoin="round"/>
</svg>
