<svg width="32" height="33" viewBox="0 0 32 33" fill="none" xmlns="http://www.w3.org/2000/svg">
<path d="M26.6667 4.30566H5.33333C4.97971 4.30566 4.64057 4.44614 4.39052 4.69619C4.14048 4.94624 4 5.28538 4 5.639V26.9723C4 27.326 4.14048 27.6651 4.39052 27.9151C4.64057 28.1652 4.97971 28.3057 5.33333 28.3057H26.6667C27.0203 28.3057 27.3594 28.1652 27.6095 27.9151C27.8595 27.6651 28 27.326 28 26.9723V5.639C28 5.28538 27.8595 4.94624 27.6095 4.69619C27.3594 4.44614 27.0203 4.30566 26.6667 4.30566V4.30566ZM11.1187 24.755H7.556V13.3017H11.1187V24.755ZM9.33733 11.7377C8.78993 11.7377 8.26494 11.5202 7.87786 11.1331C7.49079 10.7461 7.27333 10.2211 7.27333 9.67366C7.27333 9.12626 7.49079 8.60127 7.87786 8.2142C8.26494 7.82712 8.78993 7.60966 9.33733 7.60966C9.88474 7.60966 10.4097 7.82712 10.7968 8.2142C11.1839 8.60127 11.4013 9.12626 11.4013 9.67366C11.4013 10.2211 11.1839 10.7461 10.7968 11.1331C10.4097 11.5202 9.88474 11.7377 9.33733 11.7377V11.7377ZM24.4507 24.755H20.892V19.1857C20.892 17.8577 20.868 16.1497 19.0413 16.1497C17.188 16.1497 16.9067 17.5977 16.9067 19.0923V24.7563H13.3507V13.303H16.764V14.8683H16.8133C17.2867 13.9683 18.4493 13.019 20.1787 13.019C23.784 13.019 24.4493 15.3897 24.4493 18.475V24.755H24.4507Z" fill="#3C50E0"/>
</svg>
