<svg width="33" height="33" viewBox="0 0 33 33" fill="none" xmlns="http://www.w3.org/2000/svg">
<path d="M16.2758 2.97498C8.91318 2.97498 2.94385 8.94431 2.94385 16.307C2.94385 22.9603 7.81851 28.475 14.1932 29.479V20.1616H10.8065V16.307H14.1932V13.3696C14.1932 10.0256 16.1838 8.18164 19.2278 8.18164C20.6865 8.18164 22.2145 8.44164 22.2145 8.44164V11.7203H20.5292C18.8758 11.7203 18.3585 12.7496 18.3585 13.8043V16.3043H22.0532L21.4625 20.159H18.3585V29.4763C24.7332 28.4776 29.6078 22.9616 29.6078 16.307C29.6078 8.94431 23.6385 2.97498 16.2758 2.97498V2.97498Z" fill="#3C50E0"/>
</svg>
