<svg width="56" height="57" viewBox="0 0 56 57" fill="none" xmlns="http://www.w3.org/2000/svg">
<path d="M51.2634 43.27C51.2634 44.11 51.0767 44.9734 50.6801 45.8134C50.2834 46.6534 49.7701 47.4467 49.0934 48.1934C47.9501 49.4534 46.6901 50.3634 45.2667 50.9467C43.8667 51.53 42.3501 51.8334 40.7167 51.8334C38.3367 51.8334 35.7934 51.2734 33.1101 50.13C30.4267 48.9867 27.7434 47.4467 25.0834 45.51C22.4001 43.55 19.8567 41.38 17.4301 38.9767C15.0267 36.55 12.8567 34.0067 10.9201 31.3467C9.00675 28.6867 7.46675 26.0267 6.34675 23.39C5.22675 20.73 4.66675 18.1867 4.66675 15.76C4.66675 14.1734 4.94675 12.6567 5.50675 11.2567C6.06675 9.83335 6.95341 8.52669 8.19008 7.36002C9.68341 5.89002 11.3167 5.16669 13.0434 5.16669C13.6967 5.16669 14.3501 5.30669 14.9334 5.58669C15.5401 5.86669 16.0767 6.28669 16.4967 6.89335L21.9101 14.5234C22.3301 15.1067 22.6334 15.6434 22.8434 16.1567C23.0534 16.6467 23.1701 17.1367 23.1701 17.58C23.1701 18.14 23.0067 18.7 22.6801 19.2367C22.3767 19.7734 21.9334 20.3334 21.3734 20.8934L19.6001 22.7367C19.3434 22.9934 19.2267 23.2967 19.2267 23.67C19.2267 23.8567 19.2501 24.02 19.2967 24.2067C19.3667 24.3934 19.4367 24.5334 19.4834 24.6734C19.9034 25.4434 20.6267 26.4467 21.6534 27.66C22.7034 28.8734 23.8234 30.11 25.0367 31.3467C26.2967 32.5834 27.5101 33.7267 28.7467 34.7767C29.9601 35.8034 30.9634 36.5034 31.7567 36.9234C31.8734 36.97 32.0134 37.04 32.1767 37.11C32.3634 37.18 32.5501 37.2034 32.7601 37.2034C33.1567 37.2034 33.4601 37.0634 33.7167 36.8067L35.4901 35.0567C36.0734 34.4734 36.6334 34.03 37.1701 33.75C37.7067 33.4234 38.2434 33.26 38.8267 33.26C39.2701 33.26 39.7367 33.3534 40.2501 33.5634C40.7634 33.7734 41.3001 34.0767 41.8834 34.4734L49.6067 39.9567C50.2134 40.3767 50.6334 40.8667 50.8901 41.45C51.1234 42.0334 51.2634 42.6167 51.2634 43.27Z" stroke="#3C50E0" stroke-width="6" stroke-miterlimit="10"/>
<path d="M43.1668 21.5C43.1668 20.1 42.0701 17.9534 40.4368 16.2034C38.9435 14.5934 36.9601 13.3334 35.0001 13.3334" stroke="#3C50E0" stroke-width="6" stroke-linecap="round" stroke-linejoin="round"/>
<path d="M51.3335 21.5C51.3335 12.47 44.0301 5.16669 35.0001 5.16669" stroke="#3C50E0" stroke-width="6" stroke-linecap="round" stroke-linejoin="round"/>
</svg>
