<svg width="32" height="33" viewBox="0 0 32 33" fill="none" xmlns="http://www.w3.org/2000/svg">
<path d="M22.4058 11.3397C23.2011 11.3397 23.8458 10.6949 23.8458 9.89966C23.8458 9.10437 23.2011 8.45966 22.4058 8.45966C21.6105 8.45966 20.9658 9.10437 20.9658 9.89966C20.9658 10.6949 21.6105 11.3397 22.4058 11.3397Z" fill="#3C50E0"/>
<path d="M15.9999 10.1437C14.7812 10.1437 13.5898 10.5051 12.5765 11.1822C11.5631 11.8592 10.7733 12.8216 10.3069 13.9476C9.84056 15.0735 9.71853 16.3125 9.95629 17.5078C10.1941 18.7031 10.7809 19.8011 11.6427 20.6629C12.5045 21.5246 13.6024 22.1115 14.7977 22.3493C15.9931 22.587 17.232 22.465 18.358 21.9986C19.4839 21.5322 20.4463 20.7424 21.1234 19.7291C21.8005 18.7158 22.1619 17.5244 22.1619 16.3057C22.1619 14.6714 21.5127 13.1041 20.3571 11.9485C19.2015 10.7929 17.6342 10.1437 15.9999 10.1437ZM15.9999 20.3057C15.2088 20.3057 14.4354 20.0711 13.7776 19.6316C13.1198 19.192 12.6071 18.5673 12.3044 17.8364C12.0016 17.1055 11.9224 16.3012 12.0768 15.5253C12.2311 14.7494 12.6121 14.0367 13.1715 13.4772C13.7309 12.9178 14.4436 12.5369 15.2195 12.3825C15.9955 12.2282 16.7997 12.3074 17.5306 12.6102C18.2615 12.9129 18.8862 13.4256 19.3258 14.0834C19.7653 14.7412 19.9999 15.5146 19.9999 16.3057C19.9999 17.3665 19.5785 18.384 18.8283 19.1341C18.0782 19.8842 17.0608 20.3057 15.9999 20.3057Z" fill="#3C50E0"/>
<path d="M16 6.46766C19.204 6.46766 19.584 6.47966 20.849 6.53766C21.6098 6.5467 22.3635 6.6864 23.077 6.95066C23.5947 7.15036 24.0648 7.45621 24.4571 7.84854C24.8495 8.24088 25.1553 8.711 25.355 9.22866C25.6193 9.94219 25.759 10.6958 25.768 11.4567C25.826 12.7217 25.838 13.1017 25.838 16.3067C25.838 19.5117 25.826 19.8897 25.768 21.1547C25.759 21.9155 25.6193 22.6691 25.355 23.3827C25.1553 23.9003 24.8495 24.3705 24.4571 24.7628C24.0648 25.1551 23.5947 25.461 23.077 25.6607C22.3635 25.9249 21.6098 26.0646 20.849 26.0737C19.584 26.1317 19.204 26.1437 16 26.1437C12.796 26.1437 12.416 26.1317 11.151 26.0737C10.3902 26.0646 9.63653 25.9249 8.923 25.6607C8.40534 25.461 7.93521 25.1551 7.54288 24.7628C7.15055 24.3705 6.84469 23.9003 6.645 23.3827C6.38073 22.6691 6.24103 21.9155 6.232 21.1547C6.174 19.8897 6.162 19.5097 6.162 16.3057C6.162 13.1017 6.174 12.7217 6.232 11.4567C6.24103 10.6958 6.38073 9.94219 6.645 9.22866C6.84469 8.711 7.15055 8.24088 7.54288 7.84854C7.93521 7.45621 8.40534 7.15036 8.923 6.95066C9.63653 6.6864 10.3902 6.5467 11.151 6.53766C12.416 6.47966 12.796 6.46766 16 6.46766V6.46766ZM16 4.30566C12.741 4.30566 12.332 4.31966 11.052 4.37766C10.0568 4.39776 9.07216 4.58643 8.14 4.93566C7.34272 5.24396 6.61866 5.71544 6.01422 6.31988C5.40978 6.92432 4.9383 7.64839 4.63 8.44566C4.28066 9.37814 4.09198 10.3631 4.072 11.3587C4.014 12.6387 4 13.0457 4 16.3057C4 19.5657 4.014 19.9737 4.072 21.2537C4.0921 22.2489 4.28077 23.2335 4.63 24.1657C4.9383 24.9629 5.40978 25.687 6.01422 26.2914C6.61866 26.8959 7.34272 27.3674 8.14 27.6757C9.07247 28.025 10.0574 28.2137 11.053 28.2337C12.333 28.2917 12.741 28.3057 16 28.3057C19.259 28.3057 19.668 28.2917 20.948 28.2337C21.9436 28.2137 22.9285 28.025 23.861 27.6757C24.6583 27.3674 25.3823 26.8959 25.9868 26.2914C26.5912 25.687 27.0627 24.9629 27.371 24.1657C27.72 23.2331 27.9083 22.2482 27.928 21.2527C27.986 19.9727 28 19.5657 28 16.3057C28 13.0457 27.986 12.6377 27.928 11.3577C27.9079 10.3624 27.7192 9.37782 27.37 8.44566C27.0617 7.64839 26.5902 6.92432 25.9858 6.31988C25.3813 5.71544 24.6573 5.24396 23.86 4.93566C22.9275 4.58666 21.9425 4.39833 20.947 4.37866C19.667 4.31866 19.26 4.30566 16 4.30566Z" fill="#3C50E0"/>
</svg>
