<svg width="93" height="57" viewBox="0 0 93 57" fill="none" xmlns="http://www.w3.org/2000/svg">
<path d="M21.4482 28.1942C21.5608 27.9818 21.6733 27.757 21.7733 27.5072C22.6611 25.6211 24.0616 22.7358 24.4117 20.3876C25.7247 19.3509 27.0001 18.4516 28.1505 17.4773C29.2008 16.6654 30.8013 15.7536 32.0142 14.7668H45.7313C45.4937 14.8418 45.2687 14.8918 45.0436 14.9417C43.5681 15.2415 42.0301 15.5912 40.5546 15.891C38.5289 16.2532 36.2156 17.0276 34.0524 17.2774C33.0896 17.9519 32.0518 18.5265 31.0389 19.0761C29.851 19.7381 28.9007 20.6249 27.8754 21.4743C27.3877 23.1105 27.0001 24.9466 26.0748 26.2831C25.0744 27.6446 23.1863 28.1317 21.4482 28.1942Z" fill="#EAA888"/>
<g opacity="0.4">
<path d="M21.4482 28.1942C21.5608 27.9818 21.6733 27.757 21.7733 27.5072C22.6611 25.6211 24.0616 22.7358 24.4117 20.3876C25.7247 19.3509 27.0001 18.4516 28.1505 17.4773C29.2008 16.6654 30.8013 15.7536 32.0142 14.7668H45.7313C45.4937 14.8418 45.2687 14.8918 45.0436 14.9417C43.5681 15.2415 42.0301 15.5912 40.5546 15.891C38.5289 16.2532 36.2156 17.0276 34.0524 17.2774C33.0896 17.9519 32.0518 18.5265 31.0389 19.0761C29.851 19.7381 28.9007 20.6249 27.8754 21.4743C27.3877 23.1105 27.0001 24.9466 26.0748 26.2831C25.0744 27.6446 23.1863 28.1317 21.4482 28.1942Z" fill="#B0B0B0"/>
</g>
<path d="M67.3008 18.5762H0.453613V56.3476H67.3008V18.5762Z" fill="#009632"/>
<path d="M56.1093 20.5996H11.6445C10.8068 25.2586 7.14305 28.9183 2.479 29.7552V45.1685C7.14305 46.0054 10.8068 49.6651 11.6445 54.3241H56.1093C56.9471 49.6651 60.6108 46.0054 65.2749 45.1685V29.7552C60.6108 28.9183 56.9471 25.2586 56.1093 20.5996Z" fill="#AADC78"/>
<path d="M33.9146 54.3241H56.1094C56.9472 49.6651 60.6109 46.0054 65.275 45.1685V29.7552C60.6109 28.9183 56.9472 25.2586 56.1094 20.5996H33.9146V54.3241Z" fill="#B4E682"/>
<path d="M48.557 37.4616C48.557 43.5195 41.9798 48.4282 33.8771 48.4158C25.7744 48.4158 19.1973 43.507 19.1973 37.4491C19.1973 31.3912 25.7744 26.4949 33.8771 26.4949C41.9798 26.5074 48.557 31.4037 48.557 37.4616Z" fill="#009632"/>
<path d="M15.5959 37.4621C15.5959 39.1608 14.2204 40.5347 12.5199 40.5347C10.8193 40.5347 9.44385 39.1608 9.44385 37.4621C9.44385 35.7634 10.8193 34.3894 12.5199 34.3894C14.2204 34.3894 15.5959 35.7634 15.5959 37.4621Z" fill="#009632"/>
<path d="M58.3098 37.4621C58.3098 39.1608 56.9343 40.5347 55.2337 40.5347C53.5332 40.5347 52.1577 39.1608 52.1577 37.4621C52.1577 35.7634 53.5332 34.3894 55.2337 34.3894C56.9343 34.3894 58.3098 35.7634 58.3098 37.4621Z" fill="#009632"/>
<path d="M32.7144 47.1169V44.9311C31.5766 44.8561 30.6513 44.7187 29.9385 44.5314C29.2383 44.3315 28.6506 44.1567 28.1879 43.9818V40.372H32.2018C32.2018 40.7342 32.2768 41.0091 32.4143 41.1839C32.5644 41.3588 32.8645 41.4462 33.3272 41.4462C33.7273 41.4462 34.0149 41.3838 34.1899 41.2589C34.365 41.134 34.44 40.9591 34.44 40.7093C34.44 40.5344 34.365 40.397 34.2275 40.2596C34.0899 40.1347 33.8023 39.9848 33.3772 39.81C32.4769 39.4727 31.6891 39.148 31.0139 38.8357C30.3387 38.5234 29.776 38.1862 29.3383 37.8115C28.8882 37.4367 28.5631 36.9996 28.3505 36.4875C28.1379 35.9878 28.0254 35.3758 28.0254 34.6639C28.0254 34.0643 28.1129 33.5272 28.2755 33.0276C28.438 32.5405 28.7006 32.1033 29.0632 31.7286C29.4259 31.3539 29.9135 31.0541 30.5012 30.8168C31.1014 30.5794 31.8267 30.4171 32.7019 30.3296V28.2312H35.0902V30.2922C35.6654 30.3296 36.1656 30.3921 36.6032 30.467C37.0409 30.542 37.441 30.6419 37.8036 30.7418C38.1663 30.8417 38.5039 30.9542 38.804 31.0666C39.1041 31.179 39.3542 31.3039 39.5542 31.4163V34.6763H35.7279C35.7279 34.3266 35.6279 34.0893 35.4404 33.9519C35.2403 33.827 35.0027 33.7645 34.7276 33.7645C34.3275 33.7645 34.0399 33.8145 33.8648 33.9144C33.6898 34.0143 33.6022 34.2017 33.6022 34.4515C33.6022 34.6638 33.7023 34.8137 33.8898 34.9136C34.0774 35.0136 34.365 35.126 34.7401 35.2384C35.4404 35.4632 36.1156 35.713 36.7408 35.9628C37.366 36.2252 37.9162 36.5374 38.3913 36.9121C38.8665 37.2869 39.2416 37.749 39.5167 38.2736C39.7918 38.8107 39.9293 39.4602 39.9293 40.2346C39.9293 41.6336 39.5167 42.7203 38.7039 43.4822C37.8912 44.2566 36.6908 44.7062 35.1152 44.8561V47.0545H32.7144V47.1169Z" fill="#B4E682"/>
<path d="M80.6682 8.53387V28.5312C77.5547 28.6811 72.6031 29.2182 67.3013 29.6429C61.6119 30.105 57.4605 30.4298 52.4464 30.7421C48.5576 30.9794 39.8047 37.462 37.654 34.1395C34.4404 29.1807 49.7455 26.5078 52.9715 18.5763C53.5592 17.1274 49.5079 14.7791 47.0571 14.7542H32.0271C30.8142 15.7534 29.2137 16.6652 28.1633 17.4771C27.7257 17.8518 27.263 18.2141 26.7878 18.5763H17.5098C17.6598 17.652 17.8224 16.9275 18.0099 16.6402C18.7727 15.4911 22.8615 11.3318 25.2248 8.73373C26.2752 7.54712 27.0004 5.67355 28.1758 4.59936C29.7138 3.07551 32.0771 3.30035 34.0778 2.9631C38.4542 2.13873 42.7682 0.652344 47.2571 0.652344C51.1584 0.652344 56.1726 1.30185 60.0739 2.36354C67.2138 4.38701 73.3158 7.32229 80.6682 8.53387Z" fill="#F4C19A"/>
<path d="M85.807 4.78687H71.5522V30.7422H85.807V4.78687Z" fill="white"/>
<path d="M92.5466 2.53833H74.228V2.5883V4.78663V17.8018V30.7295V32.9778H92.5466V17.8018V2.5883V2.53833Z" fill="#1D7798"/>
<g opacity="0.44">
<path d="M92.5466 2.58838H74.228V17.8019H92.5466V2.58838Z" fill="#A8A8A8"/>
</g>
<path d="M80.3682 8.95845C80.3682 7.29721 81.7186 5.94824 83.3817 5.94824C85.0447 5.94824 86.3952 7.29721 86.3952 8.95845C86.3952 10.6197 85.0447 11.9687 83.3817 11.9687C81.7186 11.9687 80.3682 10.6197 80.3682 8.95845Z" fill="#DBE7E6"/>
<path opacity="0.69" d="M38.1408 32.1157C38.4159 31.054 41.1043 29.8049 41.1043 29.8049L42.8799 33.4147C42.8799 33.4147 40.7542 34.5638 39.7039 34.6013C38.641 34.6388 37.9658 32.7652 38.1408 32.1157Z" fill="#EDE3D6"/>
</svg>
