<svg width="33" height="29" viewBox="0 0 33 29" fill="none" xmlns="http://www.w3.org/2000/svg">
<path d="M32.4968 14.5C32.4968 22.1967 25.4193 28.4874 16.6215 28.4874C7.82357 28.4874 0.746094 22.1967 0.746094 14.5C0.746094 6.80321 7.82357 0.512451 16.6215 0.512451C25.4193 0.512451 32.4968 6.80321 32.4968 14.5Z" fill="#EFF4FB" stroke="#E2E8F0" stroke-width="0.5"/>
<g clip-path="url(#clip0_198_1532)">
<path d="M18.4892 9.11914H14.7542C11.3395 9.11914 8.56494 11.4982 8.56494 14.4189C8.56494 17.3397 10.6992 19.389 15.9281 21.4618C16.0615 21.5089 16.1682 21.5325 16.3016 21.5325C16.4883 21.5325 16.6484 21.4854 16.8084 21.3911C17.0752 21.2498 17.2353 20.9907 17.2353 20.708V19.6952H18.4892C21.9039 19.6952 24.7051 17.3162 24.7051 14.3954C24.7051 11.4746 21.9039 9.11914 18.4892 9.11914ZM18.4892 18.6823H16.9418C16.4349 18.6823 16.0081 19.0592 16.0081 19.5068V20.3783C11.4995 18.541 9.73877 16.8451 9.73877 14.4425C9.73877 12.1106 11.9797 10.2027 14.7542 10.2027H18.4892C21.237 10.2027 23.5046 12.1106 23.5046 14.4425C23.5046 16.7744 21.237 18.6823 18.4892 18.6823Z" fill="#64748B"/>
<path d="M13.2337 13.9006C12.8869 13.9006 12.6201 14.1362 12.6201 14.4424C12.6201 14.7486 12.8869 14.9842 13.2337 14.9842C13.5805 14.9842 13.8473 14.7486 13.8473 14.4424C13.8473 14.1362 13.5805 13.9006 13.2337 13.9006Z" fill="#64748B"/>
<path d="M16.6219 13.9006C16.2751 13.9006 16.0083 14.1362 16.0083 14.4424C16.0083 14.7486 16.2751 14.9842 16.6219 14.9842C16.942 14.9842 17.2355 14.7486 17.2355 14.4424C17.2355 14.1362 16.942 13.9006 16.6219 13.9006Z" fill="#64748B"/>
<path d="M20.0096 13.9006C19.6628 13.9006 19.396 14.1362 19.396 14.4424C19.396 14.7486 19.6628 14.9842 20.0096 14.9842C20.3564 14.9842 20.6232 14.7486 20.6232 14.4424C20.6232 14.1362 20.3297 13.9006 20.0096 13.9006Z" fill="#64748B"/>
</g>
<path d="M30.7985 4.44995C30.7985 6.09698 29.2435 7.63745 27.0557 7.63745C24.868 7.63745 23.313 6.09698 23.313 4.44995C23.313 2.80292 24.868 1.26245 27.0557 1.26245C29.2435 1.26245 30.7985 2.80292 30.7985 4.44995Z" fill="#DC3545" stroke="white" stroke-width="2"/>
<defs>
<clipPath id="clip0_198_1532">
<rect width="17.0739" height="15.075" fill="white" transform="translate(8.08496 7.80005)"/>
</clipPath>
</defs>
</svg>
