<svg width="38" height="39" viewBox="0 0 38 39" fill="none" xmlns="http://www.w3.org/2000/svg">
<path d="M34.3452 25.514C34.2912 25.616 34.2372 25.7239 34.1891 25.8439C33.7629 26.7494 33.0905 28.1347 32.9224 29.2621C32.292 29.7599 31.6797 30.1916 31.1274 30.6594C30.6231 31.0492 29.8546 31.487 29.2723 31.9607H22.6865C22.8006 31.9307 22.9087 31.9007 23.0167 31.8768C23.7251 31.7328 24.4635 31.5649 25.172 31.421C26.1445 31.2471 27.2612 30.8753 28.2937 30.7553C28.756 30.4315 29.2543 30.1556 29.7406 29.8918C30.3109 29.5739 30.7672 29.1482 31.2594 28.7404C31.4936 27.9548 31.6797 27.0732 32.1179 26.4376C32.6102 25.7719 33.5167 25.538 34.3452 25.514Z" fill="#EAA888"/>
<g opacity="0.4">
<path d="M34.3452 25.514C34.2912 25.616 34.2372 25.7239 34.1891 25.8439C33.7629 26.7494 33.0905 28.1347 32.9224 29.2621C32.292 29.7599 31.6797 30.1916 31.1274 30.6594C30.6231 31.0492 29.8546 31.487 29.2723 31.9607H22.6865C22.8006 31.9307 22.9087 31.9007 23.0167 31.8768C23.7251 31.7328 24.4635 31.5649 25.172 31.421C26.1445 31.2471 27.2612 30.8753 28.2937 30.7553C28.756 30.4315 29.2543 30.1556 29.7406 29.8918C30.3109 29.5739 30.7672 29.1482 31.2594 28.7404C31.4936 27.9548 31.6797 27.0732 32.1179 26.4376C32.6102 25.7719 33.5167 25.538 34.3452 25.514Z" fill="#B0B0B0"/>
</g>
<path d="M37.0172 24.3147C36.9271 25.604 36.705 26.7794 36.5729 27.8289C36.4048 28.9083 36.2367 30.7134 36.0086 31.0552C35.6424 31.6009 33.6792 33.6039 32.5506 34.8513C32.0403 35.415 31.6981 36.3265 31.1338 36.8363C30.3953 37.5739 29.2607 37.4599 28.3001 37.6279C26.1989 38.0236 24.1338 38.7313 21.9785 38.7313C20.1054 38.7313 17.6981 38.4194 15.825 37.9097C12.385 36.9442 9.45532 35.5289 5.92529 34.9532V25.3522C9.01707 25.1963 18.4005 25.3941 20.1955 25.3941C21.5823 25.3941 23.9416 25.658 25.5145 25.724C27.6097 30.4555 20.2315 28.8963 16.7855 29.9038C17.8181 31.6729 20.0694 31.9668 22.0686 31.9668H29.2847C29.867 31.493 30.6355 31.0492 31.1398 30.6654C31.6921 30.1977 32.3044 29.7659 32.9348 29.2682C33.1029 28.1407 33.7753 26.7554 34.2015 25.8499C34.2556 25.73 34.3036 25.622 34.3576 25.5201C34.964 24.3567 35.7684 24.3147 37.0172 24.3147Z" fill="#F4C19A"/>
<g opacity="0.69">
<path d="M25.6885 26.9415L24.0796 27.2594C23.6834 27.2594 23.107 27.3853 22.8309 27.1094C22.6568 26.9355 22.5847 26.5337 22.5067 26.3358C22.3926 26.072 22.2365 25.7781 22.1465 25.4783C23.2391 25.5622 24.4158 25.6642 25.3223 25.7062C25.4784 25.8261 25.7125 26.5157 25.6885 26.9415Z" fill="#EDE3D6"/>
</g>
<path d="M10.2897 24.2908H3.4458V36.7524H10.2897V24.2908Z" fill="white"/>
<path d="M0.21582 37.8259H9.01087V37.8019V36.7524V30.4977V24.2909V23.2114H0.21582V30.4977V37.8019V37.8259Z" fill="#1D7798"/>
<g opacity="0.44">
<path d="M9.01087 30.4976H0.21582V37.8018H9.01087V30.4976Z" fill="#A8A8A8"/>
</g>
<path d="M6.05724 34.7433C6.05724 35.5409 5.40886 36.1886 4.61041 36.1886C3.81195 36.1886 3.16357 35.5409 3.16357 34.7433C3.16357 33.9457 3.81195 33.2981 4.61041 33.2981C5.40886 33.2981 6.05724 33.9457 6.05724 34.7433Z" fill="#DBE7E6"/>
<path d="M31.9507 4.9207C31.9507 7.49338 29.8675 9.57429 27.292 9.57429C24.7165 9.57429 22.6333 7.49338 22.6333 4.9207C22.6333 2.34802 24.7165 0.26709 27.292 0.26709C29.8615 0.26709 31.9507 2.34802 31.9507 4.9207Z" fill="#FFD200"/>
<path d="M31.4639 4.92067C31.4639 7.22348 29.5969 9.08851 27.2915 9.08851C24.9862 9.08851 23.1191 7.22348 23.1191 4.92067C23.1191 2.61786 24.9862 0.752808 27.2915 0.752808C29.5969 0.752808 31.4639 2.61786 31.4639 4.92067Z" fill="#FFC800"/>
<path d="M31.9502 4.9207C31.9502 2.34802 29.867 0.26709 27.2915 0.26709V9.57429C29.861 9.57429 31.9502 7.48738 31.9502 4.9207Z" fill="#FFDC00"/>
<path d="M31.4639 4.92067C31.4639 2.61786 29.5968 0.752808 27.2915 0.752808V9.08851C29.5968 9.08851 31.4639 7.21749 31.4639 4.92067Z" fill="#FFD200"/>
<path d="M26.9194 7.79331V7.09167C26.5532 7.06768 26.259 7.0257 26.0309 6.96573C25.8027 6.90577 25.6166 6.84579 25.4725 6.79182V5.6404H26.7573C26.7573 5.75435 26.7813 5.84431 26.8293 5.89829C26.8774 5.95226 26.9734 5.98223 27.1235 5.98223C27.2496 5.98223 27.3456 5.96424 27.3997 5.92226C27.4537 5.88628 27.4837 5.82632 27.4837 5.74836C27.4837 5.69439 27.4597 5.6464 27.4177 5.60442C27.3756 5.56245 27.2796 5.51448 27.1475 5.4605C26.8593 5.35256 26.6072 5.24462 26.3911 5.14867C26.1749 5.04672 25.9948 4.93877 25.8568 4.81883C25.7127 4.69889 25.6106 4.55497 25.5386 4.39305C25.4665 4.23114 25.4365 4.03923 25.4365 3.80535C25.4365 3.61345 25.4605 3.43954 25.5146 3.28362C25.5686 3.1277 25.6526 2.98977 25.7667 2.86983C25.8808 2.74989 26.0369 2.65395 26.229 2.57599C26.4211 2.49803 26.6552 2.45005 26.9374 2.42006V1.74841H27.6998V2.40808C27.8799 2.42007 28.042 2.43806 28.1861 2.46205C28.3242 2.48603 28.4563 2.51602 28.5703 2.552C28.6844 2.58198 28.7925 2.61797 28.8885 2.65395C28.9846 2.68993 29.0626 2.72592 29.1286 2.7679V3.81135H27.9039C27.9039 3.69741 27.8739 3.61945 27.8079 3.58347C27.7479 3.54149 27.6698 3.52349 27.5798 3.52349C27.4537 3.52349 27.3576 3.5415 27.3036 3.57148C27.2496 3.60146 27.2195 3.66144 27.2195 3.7454C27.2195 3.81136 27.2496 3.85933 27.3096 3.88932C27.3696 3.9193 27.4597 3.95527 27.5798 3.99125C27.8079 4.06322 28.018 4.14118 28.2161 4.22514C28.4142 4.3091 28.5943 4.40505 28.7444 4.53099C28.8945 4.65093 29.0146 4.79484 29.1046 4.96875C29.1947 5.14266 29.2367 5.35257 29.2367 5.59844C29.2367 6.04821 29.1046 6.39003 28.8465 6.6419C28.5883 6.88777 28.2041 7.0377 27.6998 7.07968V7.78731H26.9194V7.79331Z" fill="#FFE600"/>
<path d="M29.2724 24.4647C31.8454 24.4647 33.9311 22.3812 33.9311 19.8111C33.9311 17.2409 31.8454 15.1575 29.2724 15.1575C26.6995 15.1575 24.6138 17.2409 24.6138 19.8111C24.6138 22.3812 26.6995 24.4647 29.2724 24.4647Z" fill="#FFD200"/>
<path d="M33.4449 19.811C33.4449 22.1138 31.5778 23.9789 29.2725 23.9789C26.9672 23.9789 25.1001 22.1138 25.1001 19.811C25.1001 17.5082 26.9672 15.6432 29.2725 15.6432C31.5778 15.6432 33.4449 17.5082 33.4449 19.811Z" fill="#FFC800"/>
<path d="M33.9311 19.8111C33.9311 17.2384 31.8479 15.1575 29.2725 15.1575V24.4647C31.8419 24.4647 33.9311 22.3837 33.9311 19.8111Z" fill="#FFDC00"/>
<path d="M33.4449 19.811C33.4449 17.5082 31.5778 15.6432 29.2725 15.6432V23.9789C31.5778 23.9789 33.4449 22.1138 33.4449 19.811Z" fill="#FFD200"/>
<path d="M28.9008 22.6896V21.9879C28.5346 21.9639 28.2404 21.9219 28.0123 21.862C27.7842 21.802 27.5981 21.742 27.454 21.6881V20.5367H28.7387C28.7387 20.6506 28.7627 20.7406 28.8108 20.7945C28.8588 20.8485 28.9548 20.8785 29.1049 20.8785C29.231 20.8785 29.3271 20.8605 29.3811 20.8185C29.4351 20.7825 29.4651 20.7226 29.4651 20.6446C29.4651 20.5906 29.4411 20.5426 29.3991 20.5007C29.3571 20.4587 29.261 20.4107 29.129 20.3567C28.8408 20.2488 28.5886 20.1409 28.3725 20.0449C28.1564 19.943 27.9763 19.835 27.8382 19.7151C27.6941 19.5951 27.5921 19.4512 27.52 19.2893C27.448 19.1274 27.418 18.9355 27.418 18.7016C27.418 18.5097 27.442 18.3358 27.496 18.1799C27.55 18.0239 27.6341 17.886 27.7482 17.7661C27.8622 17.6461 28.0183 17.5502 28.2104 17.4722C28.4025 17.3943 28.6367 17.3463 28.9188 17.3163V16.6447H29.6813V17.3043C29.8614 17.3163 30.0235 17.3343 30.1675 17.3583C30.3056 17.3823 30.4377 17.4123 30.5518 17.4482C30.6658 17.4782 30.7739 17.5142 30.87 17.5502C30.966 17.5862 31.044 17.6222 31.1101 17.6641V18.7076H29.8854C29.8854 18.5937 29.8554 18.5157 29.7893 18.4797C29.7293 18.4377 29.6513 18.4197 29.5612 18.4197C29.4351 18.4197 29.3391 18.4377 29.285 18.4677C29.231 18.4977 29.201 18.5577 29.201 18.6416C29.201 18.7076 29.231 18.7556 29.291 18.7856C29.3511 18.8155 29.4411 18.8515 29.5612 18.8875C29.7893 18.9595 29.9994 19.0374 30.1976 19.1214C30.3957 19.2053 30.5758 19.3013 30.7259 19.4272C30.876 19.5472 30.996 19.6911 31.0861 19.865C31.1761 20.0389 31.2181 20.2488 31.2181 20.4947C31.2181 20.9444 31.0861 21.2863 30.8279 21.5381C30.5698 21.784 30.1856 21.9339 29.6813 21.9759V22.6835H28.9008V22.6896Z" fill="#FFE600"/>
<path d="M23.0293 14.7917C23.0293 17.3643 20.9461 19.4453 18.3706 19.4453C15.7951 19.4453 13.7119 17.3643 13.7119 14.7917C13.7119 12.219 15.7951 10.1381 18.3706 10.1381C20.9461 10.1381 23.0293 12.225 23.0293 14.7917Z" fill="#FFD200"/>
<path d="M22.543 14.7915C22.543 17.0943 20.676 18.9594 18.3706 18.9594C16.0653 18.9594 14.1982 17.0943 14.1982 14.7915C14.1982 12.4887 16.0653 10.6237 18.3706 10.6237C20.676 10.6237 22.543 12.4887 22.543 14.7915Z" fill="#FFC800"/>
<path d="M23.0293 14.7917C23.0293 12.219 20.9461 10.1381 18.3706 10.1381V19.4453C20.9461 19.4453 23.0293 17.3643 23.0293 14.7917Z" fill="#FFDC00"/>
<path d="M22.543 14.7915C22.543 12.4887 20.6759 10.6237 18.3706 10.6237V18.9594C20.6759 18.9594 22.543 17.0943 22.543 14.7915Z" fill="#FFD200"/>
<path d="M17.9985 17.6701V16.9685C17.6323 16.9445 17.3381 16.9025 17.11 16.8426C16.8818 16.7826 16.6957 16.7226 16.5516 16.6687V15.5172H17.8364C17.8364 15.6312 17.8604 15.7211 17.9084 15.7751C17.9565 15.8291 18.0525 15.8591 18.2026 15.8591C18.3287 15.8591 18.4247 15.8411 18.4788 15.7991C18.5328 15.7631 18.5628 15.7032 18.5628 15.6252C18.5628 15.5712 18.5388 15.5232 18.4968 15.4813C18.4547 15.4393 18.3587 15.3913 18.2266 15.3373C17.9384 15.2294 17.6863 15.1215 17.4702 15.0255C17.254 14.9236 17.0739 14.8156 16.9359 14.6957C16.7918 14.5757 16.6897 14.4318 16.6177 14.2699C16.5456 14.108 16.5156 13.9161 16.5156 13.6822C16.5156 13.4903 16.5396 13.3164 16.5937 13.1605C16.6477 13.0045 16.7317 12.8666 16.8458 12.7467C16.9599 12.6267 17.116 12.5308 17.3081 12.4528C17.5002 12.3749 17.7343 12.3269 18.0165 12.2969V11.6252H18.7789V12.2849C18.959 12.2969 19.1211 12.3149 19.2652 12.3389C19.4033 12.3629 19.5354 12.3928 19.6494 12.4288C19.7635 12.4588 19.8716 12.4948 19.9676 12.5308C20.0637 12.5668 20.1417 12.6027 20.2077 12.6447V13.6882H18.983C18.983 13.5742 18.953 13.4963 18.887 13.4603C18.827 13.4183 18.7489 13.4003 18.6589 13.4003C18.5328 13.4003 18.4367 13.4183 18.3827 13.4483C18.3287 13.4783 18.2986 13.5383 18.2986 13.6222C18.2986 13.6882 18.3287 13.7362 18.3887 13.7661C18.4487 13.7961 18.5388 13.8321 18.6589 13.8681C18.887 13.94 19.0971 14.018 19.2952 14.102C19.4933 14.1859 19.6734 14.2819 19.8235 14.4078C19.9736 14.5278 20.0937 14.6717 20.1837 14.8456C20.2738 15.0195 20.3158 15.2294 20.3158 15.4753C20.3158 15.925 20.1837 16.2669 19.9256 16.5187C19.6674 16.7646 19.2832 16.9145 18.7789 16.9565V17.6641H17.9985V17.6701Z" fill="#FFE600"/>
</svg>
