<svg width="57" height="56" viewBox="0 0 57 56" fill="none" xmlns="http://www.w3.org/2000/svg">
<rect width="56" height="56" transform="translate(0.666626)" fill="white"/>
<path d="M21.6666 53.5833H35.6666C42.059 53.5833 46.7398 52.2197 49.8131 49.1465C52.8863 46.0732 54.2499 41.3924 54.2499 35V30.3333C54.2499 29.1005 53.2327 28.0833 51.9999 28.0833C50.7671 28.0833 49.7499 29.1005 49.7499 30.3333V35C49.7499 40.343 48.7943 43.816 46.6384 45.9719C44.4826 48.1277 41.0096 49.0833 35.6666 49.0833H21.6666C16.3235 49.0833 12.8506 48.1277 10.6947 45.9719C8.53885 43.816 7.58325 40.343 7.58325 35V21C7.58325 15.6569 8.53885 12.184 10.6947 10.0281C12.8506 7.87225 16.3235 6.91666 21.6666 6.91666H26.3333C27.5661 6.91666 28.5833 5.89947 28.5833 4.66666C28.5833 3.43385 27.5661 2.41666 26.3333 2.41666H21.6666C15.2742 2.41666 10.5933 3.78031 7.52012 6.85352C4.4469 9.92673 3.08325 14.6076 3.08325 21V35C3.08325 41.3924 4.4469 46.0732 7.52012 49.1465C10.5933 52.2197 15.2742 53.5833 21.6666 53.5833Z" fill="#3C50E0" stroke="#3C50E0"/>
<path d="M16.4598 40.1836L16.4597 40.1836L16.4642 40.1879C17.5205 41.2185 18.9553 41.7767 20.5 41.7767H20.5181C20.7827 41.7767 21.1256 41.7768 21.4772 41.6988L28.4783 40.6987C28.4787 40.6986 28.4792 40.6985 28.4796 40.6985C29.9435 40.4962 31.7921 39.5583 32.8235 38.5269L51.2082 20.1422C51.2086 20.1418 51.2091 20.1414 51.2095 20.141C53.3832 17.9907 54.5822 15.836 54.8075 13.5831L54.808 13.5782C55.059 10.7922 53.8183 8.0646 51.2102 5.45646C48.8327 3.07896 46.3738 1.82751 43.8566 1.82751C41.3394 1.82751 38.8806 3.07896 36.5031 5.45646L18.1164 23.8431C17.085 24.8746 16.1471 26.7232 15.9448 28.1871C15.9448 28.1876 15.9447 28.188 15.9447 28.1884L14.9419 35.2075C14.9419 35.2078 14.9418 35.2081 14.9418 35.2084C14.6656 37.0934 15.1907 38.9145 16.4598 40.1836ZM29.6198 35.3465L29.6196 35.3463L29.6103 35.3561C29.4595 35.5153 29.1527 35.7234 28.7814 35.909C28.4142 36.0926 28.0541 36.2194 27.8231 36.2554C27.8223 36.2556 27.8215 36.2557 27.8206 36.2558L20.805 37.258C20.8046 37.2581 20.8042 37.2581 20.8038 37.2582C20.2199 37.3385 19.8411 37.204 19.6402 37.0031C19.4393 36.8023 19.3048 36.4234 19.3851 35.8394C19.3852 35.839 19.3852 35.8387 19.3853 35.8383L20.3875 28.8227C20.3876 28.8219 20.3877 28.8211 20.3879 28.8203C20.4237 28.5907 20.5497 28.2371 20.7336 27.872C20.9182 27.5057 21.129 27.1914 21.2969 27.0236L39.682 8.63842C39.6823 8.63812 39.6826 8.63783 39.6829 8.63754C41.0325 7.29963 42.2491 6.4717 43.5148 6.35455C44.7523 6.24002 46.1884 6.79598 48.0052 8.61232C49.7403 10.3706 50.4084 11.8411 50.2888 13.1372C50.1881 14.2244 49.4926 15.4736 48.0064 16.9598L29.6198 35.3465Z" fill="#3C50E0" stroke="#3C50E0"/>
<path d="M33.2945 10.2593L33.2945 10.2593L33.2953 10.2621C35.0681 16.563 40.0713 21.5686 46.3707 23.345C46.5668 23.4087 46.7801 23.4367 46.9833 23.4367C47.9661 23.4367 48.8739 22.8075 49.146 21.7836C49.4717 20.5942 48.7909 19.3345 47.584 19.0017C42.7827 17.6486 38.9713 13.8371 37.6183 9.03581C37.2868 7.83398 36.0532 7.14573 34.8574 7.47458L34.8573 7.47445L34.8463 7.47776C33.657 7.83454 32.9646 9.05972 33.2945 10.2593Z" fill="#3C50E0" stroke="#3C50E0"/>
</svg>
