<svg width="20" height="20" viewBox="0 0 20 20" fill="none" xmlns="http://www.w3.org/2000/svg">
<g opacity="0.8" clip-path="url(#clip0_13_1012)">
<path fill-rule="evenodd" clip-rule="evenodd" d="M1.56573 3.23223C2.03457 2.76339 2.67045 2.5 3.3335 2.5H9.16683C9.62707 2.5 10.0002 2.8731 10.0002 3.33333C10.0002 3.79357 9.62707 4.16667 9.16683 4.16667H3.3335C3.11248 4.16667 2.90052 4.25446 2.74424 4.41074C2.58796 4.56702 2.50016 4.77899 2.50016 5V16.6667C2.50016 16.8877 2.58796 17.0996 2.74424 17.2559C2.90052 17.4122 3.11248 17.5 3.3335 17.5H15.0002C15.2212 17.5 15.4331 17.4122 15.5894 17.2559C15.7457 17.0996 15.8335 16.8877 15.8335 16.6667V10.8333C15.8335 10.3731 16.2066 10 16.6668 10C17.1271 10 17.5002 10.3731 17.5002 10.8333V16.6667C17.5002 17.3297 17.2368 17.9656 16.7679 18.4344C16.2991 18.9033 15.6632 19.1667 15.0002 19.1667H3.3335C2.67045 19.1667 2.03457 18.9033 1.56573 18.4344C1.09689 17.9656 0.833496 17.3297 0.833496 16.6667V5C0.833496 4.33696 1.09689 3.70107 1.56573 3.23223Z" fill="#64748B"/>
<path fill-rule="evenodd" clip-rule="evenodd" d="M16.6668 2.39884C16.419 2.39884 16.1813 2.49729 16.0061 2.67253L8.25265 10.426L7.81215 12.188L9.57414 11.7475L17.3276 3.99402C17.5028 3.81878 17.6013 3.5811 17.6013 3.33328C17.6013 3.08545 17.5028 2.84777 17.3276 2.67253C17.1524 2.49729 16.9147 2.39884 16.6668 2.39884ZM14.8276 1.49402C15.3154 1.00622 15.977 0.732178 16.6668 0.732178C17.3567 0.732178 18.0183 1.00622 18.5061 1.49402C18.9939 1.98182 19.2679 2.64342 19.2679 3.33328C19.2679 4.02313 18.9939 4.68473 18.5061 5.17253L10.5894 13.0892C10.4826 13.196 10.3488 13.2718 10.2023 13.3084L6.86896 14.1417C6.58498 14.2127 6.28458 14.1295 6.07759 13.9225C5.87061 13.7156 5.7874 13.4151 5.8584 13.1312L6.69173 9.79783C6.72836 9.65131 6.80413 9.51749 6.91092 9.41069L14.8276 1.49402Z" fill="#64748B"/>
</g>
<defs>
<clipPath id="clip0_13_1012">
<rect width="20" height="20" fill="white"/>
</clipPath>
</defs>
</svg>
