<svg width="21" height="20" viewBox="0 0 21 20" fill="none" xmlns="http://www.w3.org/2000/svg">
<path d="M20 10.2216C20.0121 9.53416 19.9397 8.84776 19.7844 8.17725H10.2041V11.8883H15.8276C15.7211 12.539 15.4814 13.1618 15.1229 13.7194C14.7644 14.2769 14.2945 14.7577 13.7415 15.1327L13.7219 15.257L16.7512 17.5567L16.9609 17.5772C18.8883 15.8328 19.9996 13.266 19.9996 10.2216" fill="#4285F4"/>
<path d="M10.204 19.9998C12.959 19.9998 15.272 19.1109 16.9615 17.5775L13.7414 15.133C12.8798 15.722 11.7234 16.1332 10.204 16.1332C8.91366 16.1258 7.65844 15.7203 6.61645 14.9744C5.57446 14.2285 4.7986 13.1799 4.39897 11.9775L4.27938 11.9875L1.12955 14.3764L1.08838 14.4886C1.93671 16.1455 3.23861 17.5384 4.84851 18.5117C6.4584 19.485 8.31283 20.0002 10.2044 19.9998" fill="#34A853"/>
<path d="M4.39899 11.9777C4.1758 11.3411 4.06063 10.673 4.05807 9.99996C4.06218 9.32799 4.1731 8.66075 4.38684 8.02225L4.38115 7.88968L1.19269 5.4624L1.0884 5.51101C0.372763 6.90343 0 8.4408 0 9.99987C0 11.5589 0.372763 13.0963 1.0884 14.4887L4.39899 11.9777" fill="#FBBC05"/>
<path d="M10.2042 3.86687C11.6663 3.84462 13.0804 4.37827 14.1498 5.35583L17.0296 2.60021C15.1826 0.902092 12.7366 -0.0296414 10.2042 0.000207357C8.3126 -0.000233694 6.45819 0.514977 4.8483 1.48823C3.2384 2.46148 1.93649 3.85441 1.08813 5.51125L4.38775 8.02249C4.79132 6.8203 5.56974 5.77256 6.61327 5.02699C7.6568 4.28143 8.91279 3.87565 10.2042 3.86687" fill="#EB4335"/>
</svg>
