<svg width="57" height="57" viewBox="0 0 57 57" fill="none" xmlns="http://www.w3.org/2000/svg">
<path d="M23.7133 41.38C24.7866 42.7567 26.4666 43.6667 28.3333 43.6667C31.5533 43.6667 34.1666 41.0533 34.1666 37.8333C34.1666 36.5033 33.7233 35.2667 32.9766 34.2867" stroke="#3C50E0" stroke-width="6" stroke-linecap="round" stroke-linejoin="round"/>
<path d="M6.91321 49.0333C5.48988 47.26 4.99988 44.4366 4.99988 40.1666V35.5C4.99988 26.1666 7.33321 23.8333 16.6665 23.8333H39.9999C40.8399 23.8333 41.6099 23.8566 42.3332 23.9033C49.7299 24.3233 51.6665 27.0066 51.6665 35.5V40.1666C51.6665 49.5 49.3332 51.8333 39.9999 51.8333H16.6665C15.8265 51.8333 15.0565 51.81 14.3332 51.7633" stroke="#3C50E0" stroke-width="6" stroke-linecap="round" stroke-linejoin="round"/>
<path d="M14.3333 23.8334V19.1667C14.3333 11.4434 16.6666 5.16669 28.3333 5.16669C38.0166 5.16669 41.2599 8.38669 42.0999 13.4734" stroke="#3C50E0" stroke-width="6" stroke-linecap="round" stroke-linejoin="round"/>
<path d="M51.6665 5.16669L4.99988 51.8334" stroke="#3C50E0" stroke-width="6" stroke-linecap="round" stroke-linejoin="round"/>
</svg>
