<svg width="70" height="88" viewBox="0 0 70 88" fill="none" xmlns="http://www.w3.org/2000/svg">
<path d="M39.6577 33.0283H37.4111V33.6031H39.6577V33.0283Z" fill="#6D6E71"/>
<path d="M39.6577 23.0667H37.4111V23.6414H39.6577V23.0667Z" fill="#6D6E71"/>
<path d="M39.6577 13.0911H37.4111V13.6658H39.6577V13.0911Z" fill="#6D6E71"/>
<path d="M39.6577 3.11572H37.4111V3.69046H39.6577V3.11572Z" fill="#6D6E71"/>
<path d="M37.6987 1.2959H37.1233V43.2912H37.6987V1.2959Z" fill="#6D6E71"/>
<path d="M0 87.4757L4.50686 70.3163C4.90412 68.7837 5.89041 67.4564 7.23287 66.608L21.137 57.9873L22.3836 69.6321L32.0274 87.4757H0Z" fill="#1D7798"/>
<path d="M70.0001 87.4757L65.4932 70.3163C65.0959 68.7837 64.1096 67.4564 62.7535 66.608L48.8494 57.9873L47.6028 69.6321L37.9727 87.4757H70.0001Z" fill="#1D7798"/>
<path d="M18.8221 39.4456C18.8221 39.4456 16.1509 42.2919 14.8632 35.5047C13.4659 28.266 13.5207 24.3251 16.0002 23.5041C17.5892 22.9841 18.055 24.3251 18.055 24.3251L18.8221 39.4456Z" fill="#FFC8A0"/>
<path d="M45.5068 53.3757L47.2876 54.6757C48.2602 55.3872 48.8219 56.4956 48.8219 57.6861V66.1426C48.8219 68.4141 48.1917 70.6446 47.0136 72.6013L37.9451 87.4755H34.7808V55.784L45.5068 53.3757Z" fill="#F0F0F0"/>
<path d="M24.274 53.3757L22.4932 54.6757C21.5343 55.3735 20.959 56.4956 20.959 57.6861V66.1426C20.959 68.4278 21.5891 70.6583 22.7672 72.6013L31.8357 87.4755H35.0001V55.7704L24.274 53.3757Z" fill="#F0F0F0"/>
<path d="M39.0822 87.4753L37.0411 75.6116H35H34.9452H32.9042L30.8494 87.4753H34.9452H35H39.0822Z" fill="#FF6400"/>
<path d="M35.0001 77.0762L38.1371 75.0236C39.1097 74.3805 39.507 73.1626 39.096 72.0679L37.644 68.2228C37.2741 67.2513 36.3563 66.6218 35.3152 66.6218H34.9864H34.6577C33.6166 66.6218 32.6988 67.2649 32.3289 68.2228L30.8768 72.0679C30.4659 73.1626 30.8631 74.3805 31.8357 75.0236L35.0001 77.0762Z" fill="#FF6400"/>
<path d="M24.2739 49.654V54.7854C24.2739 56.6464 25.1096 58.4116 26.5616 59.6021L31.0273 63.2419C33.3013 65.1029 36.5753 65.1029 38.863 63.2556L43.3972 59.5884C44.863 58.4116 45.7123 56.6327 45.7123 54.758V49.1614L24.2739 49.654Z" fill="#F4C19A"/>
<path d="M24.2739 53.417C27.1643 56.6053 30.7671 58.3568 34.7808 58.3568C38.9863 58.3568 42.7671 56.4548 45.7123 52.9518V49.1614L24.2739 49.654V53.417Z" fill="#EAB790"/>
<path d="M34.7806 55.7841C44.5751 55.7841 52.082 45.5351 52.082 28.5672C52.082 7.41222 45.8628 2.48608 34.7806 2.48608C23.6984 2.48608 17.4792 7.39854 17.4792 28.5672C17.4792 45.5487 24.9861 55.7841 34.7806 55.7841Z" fill="#F4C19A"/>
<path d="M51 39.4456C51 39.4456 53.6712 42.2919 54.9726 35.5047C56.3562 28.266 56.3151 24.3251 53.8219 23.5041C52.2329 22.9841 51.7808 24.3251 51.7808 24.3251L51 39.4456Z" fill="#FFC8A0"/>
<path d="M35.0002 2.5V55.7707C44.6852 55.6202 52.0824 45.4122 52.0824 28.5675C52.0824 7.54932 45.9454 2.55473 35.0002 2.5Z" fill="#FFC8A0"/>
<path d="M30.3561 33.4521H24.1369C22.4246 33.4521 21.0273 32.0564 21.0273 30.3459V29.5659C21.0273 27.8554 22.4246 26.4597 24.1369 26.4597H30.3561C32.0684 26.4597 33.4657 27.8554 33.4657 29.5659V30.3459C33.4657 32.0564 32.0684 33.4521 30.3561 33.4521ZM24.1369 27.7049C23.1095 27.7049 22.2739 28.5396 22.2739 29.5659V30.3459C22.2739 31.3722 23.1095 32.2069 24.1369 32.2069H30.3561C31.3835 32.2069 32.2328 31.3722 32.2328 30.3459V29.5659C32.2328 28.5396 31.3972 27.7049 30.3561 27.7049H24.1369Z" fill="#393939"/>
<path d="M45.7397 33.4521H39.5205C37.8081 33.4521 36.4109 32.0564 36.4109 30.3459V29.5659C36.4109 27.8554 37.8081 26.4597 39.5205 26.4597H45.7397C47.452 26.4597 48.8492 27.8554 48.8492 29.5659V30.3459C48.8492 32.0564 47.452 33.4521 45.7397 33.4521ZM39.5342 27.7049C38.5068 27.7049 37.6711 28.5396 37.6711 29.5659V30.3459C37.6711 31.3722 38.5068 32.2069 39.5342 32.2069H45.7533C46.7807 32.2069 47.6164 31.3722 47.6164 30.3459V29.5659C47.6164 28.5396 46.7807 27.7049 45.7533 27.7049H39.5342Z" fill="#393939"/>
<path d="M37.0414 27.8145H32.8496V29.0597H37.0414V27.8145Z" fill="#393939"/>
<path d="M50.1507 4.26511C52.1096 5.38718 53.6986 9.20493 54.6712 12.1743C55.4247 14.4458 55.5616 16.8405 55.0959 19.1941L52.1644 34.0819C52.1644 34.0819 51.3699 28.5811 51.1096 24.0518C50.3973 11.3943 46.5342 10.2586 42.4247 10.2586C40.3151 10.2586 35.0137 11.8185 35.0137 11.8185H34.9589C34.9589 11.8185 29.6576 10.2586 27.548 10.2586C23.4384 10.2586 19.548 11.3943 18.8356 24.0518C18.5753 28.5674 17.8082 34.0819 17.8082 34.0819L14.9041 19.2625C14.4384 16.8815 14.6027 14.4184 15.3699 12.1196C16.3699 9.19124 17.9452 5.4419 19.8219 4.25142C29.9315 -1.04418 39.1781 -1.78309 50.1507 4.26511Z" fill="#8B5E3C"/>
</svg>
