<svg width="79" height="85" viewBox="0 0 79 85" fill="none" xmlns="http://www.w3.org/2000/svg">
<path d="M78.9292 80.5751C78.9292 82.719 77.1891 84.4428 75.0574 84.4428H3.94311C1.79692 84.4428 0.0712891 82.7045 0.0712891 80.5751V9.53828C0.0712891 7.39443 1.81142 5.67065 3.94311 5.67065H75.0574C77.2036 5.67065 78.9292 7.40891 78.9292 9.53828V80.5751Z" fill="#6E5A46"/>
<path d="M78.9289 80.575C78.9289 82.7188 77.1888 84.4426 75.0571 84.4426H39.5V5.65601H75.0571C77.2033 5.65601 78.9289 7.39426 78.9289 9.52363V80.575Z" fill="#786450"/>
<path d="M74.4339 8.53882H4.55225V79.6626H74.4339V8.53882Z" fill="#E6E6E6"/>
<path d="M74.4339 8.53882H4.55225V24.9074H74.4339V8.53882Z" fill="#FF5000"/>
<path d="M74.448 8.53882H39.5V79.6626H74.448V8.53882Z" fill="#F0F0F0"/>
<path d="M21.374 48.2146L28.3636 46.6067H34.4396V65.9014H37.0789V71.0582H22.3166V65.9014H25.3328V51.749H21.374V48.2146Z" fill="#FF6400"/>
<path d="M39.6305 46.6067H56.365V52.7051H45.9241L45.634 55.9788C46.1851 55.6601 46.8666 55.4139 47.6787 55.2111C48.4908 55.0083 49.2449 54.9069 49.9119 54.9069C51.13 54.9069 52.2176 55.0952 53.1892 55.4718C54.1608 55.8484 54.9584 56.3844 55.6109 57.0652C56.2635 57.746 56.7565 58.5572 57.1045 59.5133C57.4526 60.4693 57.6266 61.5267 57.6266 62.6711C57.6266 65.5827 56.771 67.8424 55.0454 69.4358C53.3197 71.0292 50.898 71.8259 47.7367 71.8259C46.5911 71.8259 45.5325 71.7535 44.6044 71.6231C43.6764 71.4928 42.8208 71.3044 42.0667 71.0872C41.3127 70.8699 40.6456 70.6236 40.0655 70.3484C39.4855 70.0732 38.978 69.8124 38.5429 69.5662V63.2505H45.8371C45.8371 63.9893 45.953 64.5542 46.1706 64.9453C46.3881 65.3364 46.8521 65.5392 47.5337 65.5392C48.1427 65.5392 48.5633 65.3219 48.8098 64.8874C49.0563 64.4528 49.1723 63.7286 49.1723 62.7291C49.1723 61.6716 49.0563 60.8894 48.8098 60.4114C48.5633 59.9333 48.1283 59.6871 47.4757 59.6871C46.8522 59.6871 46.4171 59.8754 46.1851 60.2665C45.9531 60.6431 45.8371 61.0777 45.8371 61.5557H39.8625L38.4414 59.3829L39.6305 46.6067Z" fill="#FF6400"/>
<path d="M27.4062 39.494H28.3488L28.0877 38.2483H25.9706L25.7241 39.494H26.6666V42.0724H21.2866V39.494H21.9102L24.5639 29.8467H30.2919L32.9457 39.494H33.5692V42.0724H27.4062V39.494ZM26.3041 36.5824H27.7542L27.1016 33.4391H26.9422L26.3041 36.5824Z" fill="#1D7798"/>
<path d="M40.9655 42.0724H34.1064V39.494H35.049V32.4251H34.1064V29.8467H41.1686C41.8066 29.8467 42.3866 29.9191 42.9087 30.0495C43.4307 30.1798 43.8658 30.3971 44.2283 30.6868C44.5908 30.9766 44.8664 31.3677 45.0549 31.8312C45.2434 32.3092 45.3449 32.8742 45.3449 33.5405C45.3449 34.2213 45.2434 34.8007 45.0549 35.2643C44.8664 35.7278 44.5908 36.1044 44.2283 36.4086C43.8658 36.6983 43.4307 36.9156 42.9087 37.046C42.3866 37.1763 41.8066 37.2488 41.1686 37.2488H39.4574V39.5085H40.9655V42.0724ZM39.994 35.0035C40.284 35.0035 40.516 34.9311 40.6755 34.7718C40.835 34.6124 40.9075 34.3517 40.9075 34.004V33.4391C40.9075 33.077 40.835 32.8307 40.6755 32.6714C40.516 32.512 40.2985 32.4396 39.994 32.4396H39.4574V35.018H39.994V35.0035Z" fill="#1D7798"/>
<path d="M50.971 39.494H52.0151V42.0724H45.6201V39.494H46.5627V32.4251H45.6201V29.8467H53.0013C53.6393 29.8467 54.2193 29.9046 54.7414 30.035C55.2634 30.1654 55.6985 30.3682 56.061 30.6434C56.4235 30.9186 56.6991 31.2807 56.8876 31.7298C57.0761 32.1788 57.1776 32.7293 57.1776 33.3811C57.1776 34.0764 57.0326 34.6704 56.7571 35.1918C56.4816 35.6988 56.0755 36.061 55.539 36.2782L55.5535 36.4376C56.554 36.5969 57.0616 37.2198 57.0616 38.2917V39.5085H57.8012V42.0869H52.8127V38.3931C52.8127 38.0745 52.7837 37.8282 52.7112 37.6254C52.6387 37.4371 52.5372 37.2922 52.3777 37.1908C52.2182 37.0894 52.0297 37.017 51.7976 36.988C51.5656 36.9446 51.2901 36.9301 50.9566 36.9301V39.494H50.971ZM51.8267 35.0035C52.1312 35.0035 52.3632 34.9311 52.5082 34.7718C52.6532 34.6124 52.7402 34.3517 52.7402 34.004V33.4391C52.7402 33.077 52.6677 32.8307 52.5082 32.6714C52.3487 32.512 52.1312 32.4396 51.8267 32.4396H50.971V35.018H51.8267V35.0035Z" fill="#1D7798"/>
<path d="M74.4339 76.3887H4.55225V79.6624H74.4339V76.3887Z" fill="#FF5000"/>
<path d="M74.448 8.53882H39.5V24.9074H74.448V8.53882Z" fill="#FF6400"/>
<path d="M11.6871 12.5946C11.6871 13.174 11.2231 13.6375 10.643 13.6375H8.69986C8.1198 13.6375 7.65576 13.1595 7.65576 12.5946V1.60009C7.65576 1.02067 8.13431 0.557129 8.69986 0.557129H10.643C11.2231 0.557129 11.6871 1.03515 11.6871 1.60009V12.5946Z" fill="#C8C8C8"/>
<path d="M21.6347 12.5946C21.6347 13.174 21.1562 13.6375 20.5906 13.6375H18.633C18.0529 13.6375 17.5889 13.1595 17.5889 12.5946V1.60009C17.5889 1.02067 18.0529 0.557129 18.633 0.557129H20.5906C21.1707 0.557129 21.6347 1.03515 21.6347 1.60009V12.5946Z" fill="#C8C8C8"/>
<path d="M31.5829 12.5946C31.5829 13.174 31.1044 13.6375 30.5388 13.6375H28.5957C28.0156 13.6375 27.5371 13.1595 27.5371 12.5946V1.60009C27.5371 1.02067 28.0156 0.557129 28.5957 0.557129H30.5388C31.1189 0.557129 31.5829 1.03515 31.5829 1.60009V12.5946Z" fill="#C8C8C8"/>
<path d="M41.5166 12.5946C41.5166 13.174 41.0525 13.6375 40.4725 13.6375H38.5148C37.9347 13.6375 37.4707 13.1595 37.4707 12.5946V1.60009C37.4707 1.02067 37.9492 0.557129 38.5148 0.557129H40.4725C41.0525 0.557129 41.5166 1.03515 41.5166 1.60009V12.5946Z" fill="#C8C8C8"/>
<path d="M51.4643 12.5946C51.4643 13.174 50.9858 13.6375 50.4202 13.6375H48.4626C47.8825 13.6375 47.4185 13.1595 47.4185 12.5946V1.60009C47.4185 1.02067 47.897 0.557129 48.4626 0.557129H50.4202C51.0003 0.557129 51.4643 1.03515 51.4643 1.60009V12.5946Z" fill="#C8C8C8"/>
<path d="M61.4117 12.5946C61.4117 13.174 60.9332 13.6375 60.3676 13.6375H58.4245C57.8444 13.6375 57.3804 13.1595 57.3804 12.5946V1.60009C57.3804 1.02067 57.8589 0.557129 58.4245 0.557129H60.3676C60.9477 0.557129 61.4117 1.03515 61.4117 1.60009V12.5946Z" fill="#C8C8C8"/>
<path d="M71.3598 12.5946C71.3598 13.174 70.8813 13.6375 70.3157 13.6375H68.3581C67.778 13.6375 67.314 13.1595 67.314 12.5946V1.60009C67.314 1.02067 67.7925 0.557129 68.3581 0.557129H70.3157C70.8958 0.557129 71.3598 1.03515 71.3598 1.60009V12.5946Z" fill="#C8C8C8"/>
<path d="M74.448 76.3887H39.5V79.6624H74.448V76.3887Z" fill="#FF6400"/>
</svg>
