<svg width="57" height="56" viewBox="0 0 57 56" fill="none" xmlns="http://www.w3.org/2000/svg">
<path d="M41.8561 18.9501V18.997L42.3728 18.9798C46.8441 18.8307 50.3447 15.2019 50.3695 10.7128V10.71C50.3695 6.1639 46.6456 2.44003 42.0995 2.44003C37.5543 2.44003 33.8295 6.13959 33.8295 10.71C33.8295 15.1374 37.263 18.7265 41.8561 18.9501ZM42.3328 18.9567C42.341 18.9567 42.3396 18.9569 42.3327 18.9567H42.3328ZM41.8561 18.48V18.4802C41.8561 18.4765 41.8561 18.4744 41.8561 18.4744C41.8561 18.4745 41.8561 18.4762 41.8561 18.48ZM38.3295 10.6867C38.3295 8.60619 40.0189 6.91671 42.0995 6.91671C44.2042 6.91671 45.8914 8.60657 45.8928 10.6841C45.871 12.7006 44.3408 14.3339 42.3683 14.4552C42.2641 14.4449 42.1624 14.4392 42.0761 14.4392C42.0286 14.4392 41.9742 14.4409 41.9219 14.4472C41.9105 14.4486 41.8964 14.4505 41.8805 14.4533C39.8746 14.3337 38.3295 12.7024 38.3295 10.6867Z" fill="#3C50E0" stroke="#3C50E0"/>
<path d="M47.8913 30.1493L47.8893 30.1507C45.9853 31.42 43.0871 31.9467 40.3174 31.4738C39.0948 31.2651 37.9213 32.0709 37.7104 33.3059C37.5018 34.5278 38.3065 35.7006 39.5402 35.9125C40.4823 36.0815 41.4216 36.1534 42.3566 36.1534C45.3112 36.1534 48.1631 35.3615 50.3785 33.9008L50.3785 33.9009L50.3828 33.898C52.5673 32.4253 53.8466 30.2996 53.8466 28.0234C53.8466 25.7208 52.5408 23.619 50.3817 22.1714L50.3807 22.1707C47.4588 20.2228 43.3815 19.4855 39.4708 20.1808C38.2367 20.3925 37.4318 21.5654 37.6404 22.7875C37.8491 24.0096 39.0142 24.8577 40.2545 24.6183C43.0454 24.1242 45.9865 24.6514 47.8883 25.9187C48.893 26.5962 49.3466 27.3496 49.3466 28.0234C49.3466 28.7053 48.9066 29.4797 47.8913 30.1493Z" fill="#3C50E0" stroke="#3C50E0"/>
<path d="M14.1999 18.9564L14.2083 18.9567H14.2166H14.2166H14.2166H14.2166H14.2167H14.2167H14.2167H14.2167H14.2167H14.2168H14.2168H14.2168H14.2168H14.2168H14.2169H14.2169H14.2169H14.2169H14.2169H14.2169H14.217H14.217H14.217H14.217H14.217H14.2171H14.2171H14.2171H14.2171H14.2172H14.2172H14.2172H14.2172H14.2173H14.2173H14.2173H14.2173H14.2174H14.2174H14.2174H14.2174H14.2175H14.2175H14.2175H14.2176H14.2176H14.2176H14.2177H14.2177H14.2177H14.2178H14.2178H14.2178H14.2179H14.2179H14.2179H14.218H14.218H14.218H14.2181H14.2181H14.2182H14.2182H14.2182H14.2183H14.2183H14.2184H14.2184H14.2184H14.2185H14.2185H14.2186H14.2186H14.2187H14.2187H14.2188H14.2188H14.2188H14.2189H14.2189H14.219H14.219H14.2191H14.2191H14.2192H14.2192H14.2193H14.2193H14.2194H14.2194H14.2195H14.2195H14.2196H14.2196H14.2197H14.2197H14.2198H14.2199H14.2199H14.22H14.22H14.2201H14.2201H14.2202H14.2202H14.2203H14.2204H14.2204H14.2205H14.2205H14.2206H14.2207H14.2207H14.2208H14.2208H14.2209H14.221H14.221H14.2211H14.2211H14.2212H14.2213H14.2213H14.2214H14.2215H14.2215H14.2216H14.2217H14.2217H14.2218H14.2219H14.2219H14.222H14.2221H14.2221H14.2222H14.2223H14.2224H14.2224H14.2225H14.2226H14.2226H14.2227H14.2228H14.2229H14.2229H14.223H14.2231H14.2231H14.2232H14.2233H14.2234H14.2234H14.2235H14.2236H14.2237H14.2238H14.2238H14.2239H14.224H14.2241H14.2241H14.2242H14.2243H14.2244H14.2245H14.2245H14.2246H14.2247H14.2248H14.2249H14.2249H14.225H14.2251H14.2252H14.2253H14.2254H14.2254H14.2255H14.2256H14.2257H14.2258H14.2259H14.226H14.226H14.2261H14.2262H14.2263H14.2264H14.2265H14.2266H14.2267H14.2267H14.2268H14.2269H14.227H14.2271H14.2272H14.2273H14.2274H14.2275H14.2276H14.2277H14.2277H14.2278H14.2279H14.228H14.2281H14.2282H14.2283H14.2284H14.2285H14.2286H14.2287H14.2288H14.2289H14.229H14.2291H14.2292H14.2293H14.2294H14.2295H14.2296H14.2297H14.2298H14.2299H14.23H14.2301H14.2302H14.2303H14.2304H14.2305H14.2306H14.2307H14.2308H14.2309H14.231H14.2311H14.2312H14.2313H14.2314H14.2315H14.2316H14.2317H14.2318H14.2319H14.232H14.2321H14.2322H14.2323H14.2324H14.2325H14.2326H14.2327H14.2328H14.2329H14.2331H14.2332H14.2333H14.2334H14.2335H14.2336H14.2337H14.2338H14.2339H14.234H14.2341H14.2342H14.2344H14.2345H14.2346H14.2347H14.2348H14.2349H14.235H14.2351H14.2352H14.2354H14.2355H14.2356H14.2357H14.2358H14.2359H14.236H14.2361H14.2363H14.2364H14.2365H14.2366H14.2367H14.2368H14.237H14.2371H14.2372H14.2373H14.2374H14.2375H14.2376H14.2378H14.2379H14.238H14.2381H14.2382H14.2383H14.2385H14.2386H14.2387H14.2388H14.2389H14.2391H14.2392H14.2393H14.2394H14.2395H14.2397H14.2398H14.2399H14.24H14.2401H14.2403H14.2404H14.2405H14.2406H14.2407H14.2409H14.241H14.2411H14.2412H14.2414H14.2415H14.2416H14.2417H14.2418H14.242H14.2421H14.2422H14.2423H14.2425H14.2426H14.2427H14.2428H14.243H14.2431H14.2432H14.2433H14.2435H14.2436H14.2437H14.2438H14.244H14.2441H14.2442H14.2443H14.2445H14.2446H14.2447H14.2448H14.245H14.2451H14.2452H14.2453H14.2455H14.2456H14.2457H14.2459H14.246H14.2461H14.2462H14.2464H14.2465H14.2466H14.2468H14.2469H14.247H14.2471H14.2473H14.2474H14.2475H14.2477H14.2478H14.2479H14.2481H14.2482H14.2483H14.2484H14.2486H14.2487H14.2488H14.249H14.2491H14.2492H14.2494H14.2495H14.2496H14.2498H14.2499H14.25H14.2501H14.2503H14.2504H14.2505H14.2507H14.2508H14.2509H14.2511H14.2512H14.2513H14.2515H14.2516H14.2517H14.2519H14.252H14.2521H14.2523H14.2524H14.2525H14.2527H14.2528H14.2529H14.2531H14.2532H14.2533H14.2535H14.2536H14.2537H14.2539H14.254H14.2541H14.2543H14.2544H14.2545H14.2547H14.2548H14.255H14.2551H14.2552H14.2554H14.2555H14.2556H14.2558H14.2559H14.256H14.2562H14.2563H14.2564H14.2566H14.2567H14.2568H14.257H14.2571H14.2572H14.2574H14.2575H14.2577H14.2578H14.2579H14.2581H14.2582H14.2583H14.2585H14.2586H14.2587H14.2589H14.259H14.2592H14.2593H14.2594H14.2596H14.2597H14.2598H14.26H14.2601H14.2602H14.2604H14.2605H14.2607H14.2608H14.2609H14.2611H14.2612H14.2613H14.2615H14.2616H14.2617H14.2619H14.262H14.2622H14.2623H14.2624H14.2626H14.2627H14.2628H14.263H14.2631H14.2633H14.2635H14.2638H14.2641H14.2643H14.2646H14.2649H14.2652H14.2655H14.2657H14.266H14.2663H14.2666H14.2668H14.2671H14.2674H14.2677H14.268H14.2683H14.2685H14.2688H14.2691H14.2694H14.2697H14.27H14.2702H14.2705H14.2708H14.2711H14.2714H14.2717H14.272H14.2723H14.2726H14.2728H14.2731H14.2734H14.2737H14.274H14.2743H14.2746H14.2749H14.2752H14.2755H14.2758H14.2761H14.2764H14.2767H14.277H14.2772H14.2775H14.2778H14.2781H14.2784H14.2787H14.279H14.2793H14.2796H14.2799H14.2802H14.2805H14.2808H14.2811H14.2815H14.2818H14.2821H14.2824H14.2827H14.283H14.2833H14.2836H14.2839H14.2842H14.2845H14.2848H14.2851H14.2854H14.2857H14.286H14.2863H14.2867H14.287H14.2873H14.2876H14.2879H14.2882H14.2885H14.2888H14.2891H14.2895H14.2898H14.2901H14.2904H14.2907H14.291H14.2913H14.2917H14.292H14.2923H14.2926H14.2929H14.2932H14.2936H14.2939H14.2942H14.2945H14.2948H14.2951H14.2955H14.2958H14.2961H14.2964H14.2967H14.2971H14.2974H14.2977H14.298H14.2983H14.2987H14.299H14.2993H14.2996H14.3H14.3003H14.3006H14.3009H14.3012H14.3016H14.3019H14.3022H14.3025H14.3029H14.3032H14.3035H14.3038H14.3042H14.3045H14.3048H14.3052H14.3055H14.3058H14.3061H14.3065H14.3068H14.3071H14.3075H14.3078H14.3081H14.3084H14.3088H14.3091H14.3094H14.3098H14.3101H14.3104H14.3108H14.3111H14.3114H14.3117H14.3121H14.3124H14.3127H14.3131H14.3134H14.3137H14.3141H14.3144H14.3147H14.3151H14.3154H14.3157H14.3161H14.3164H14.3167H14.3171H14.3174H14.3178H14.3181H14.3184H14.3188H14.3191H14.3194H14.3198H14.3201H14.3204H14.3208H14.3211H14.3214H14.3218H14.3221H14.3225H14.3228H14.3231H14.3235H14.3238H14.3241H14.3245H14.3248H14.3252H14.3255H14.3258H14.3262H14.3265H14.3269H14.3272H14.3275H14.3279H14.3282H14.3285H14.3289H14.3292H14.3296H14.3299H14.3302H14.3306H14.3309H14.3313H14.3316H14.3319H14.3323H14.3326H14.333H14.3333H14.3337H14.334H14.3343H14.3347H14.335H14.3354H14.3357H14.336H14.3364H14.3367H14.3371H14.3374H14.3377H14.3381H14.3384H14.3388H14.3391H14.3394H14.3398H14.3401H14.3405H14.3408H14.3412H14.3415H14.3418H14.3422H14.3425H14.3429H14.3432H14.3435H14.3439H14.3442H14.3446H14.3449H14.3453H14.3456H14.3459H14.3463H14.3466H14.347H14.3473H14.3477H14.348H14.3483H14.3487H14.349H14.3494H14.3497H14.35H14.3504H14.3507H14.3511H14.3514H14.3518H14.3521H14.3524H14.3528H14.3531H14.3535H14.3538H14.3541H14.3545H14.3548H14.3552H14.3555H14.3558H14.3562H14.3565H14.3569H14.3572H14.3575H14.3579H14.3582H14.3586H14.3589H14.3592H14.3596H14.3599H14.3603H14.3606H14.3609H14.3613H14.3616H14.362H14.3623H14.3626H14.363H14.3633H14.3637H14.364H14.3643H14.3647H14.365H14.3653H14.3657H14.366H14.3664H14.3667H14.367H14.3674H14.3677H14.368H14.3684H14.3687H14.3691H14.3694H14.3697H14.3701H14.3704H14.3707H14.3711H14.3714H14.3717H14.3721H14.3724H14.3728H14.3731H14.3734H14.3738H14.374L14.3776 18.9695L14.7616 18.9567H14.9754L14.9745 18.9471C19.3471 18.6961 22.7432 15.1096 22.7432 10.6867C22.7432 6.14052 19.0194 2.41666 14.4733 2.41666C9.92614 2.41666 6.20325 6.14148 6.20324 10.71L6.20325 10.7128C6.22807 15.1794 9.72959 18.8074 14.1999 18.9564ZM18.2899 10.71C18.2899 12.7467 16.6966 14.3712 14.9177 14.478C14.7617 14.4566 14.6277 14.4566 14.508 14.4567L14.4966 14.4567L14.4894 14.4567C14.4483 14.4566 14.3846 14.4566 14.327 14.461C14.3024 14.4629 14.2668 14.4664 14.2269 14.4743C12.2659 14.3076 10.7499 12.697 10.7499 10.71C10.7499 8.62946 12.4394 6.93998 14.5199 6.93998C16.6004 6.93998 18.2899 8.62946 18.2899 10.71Z" fill="#3C50E0" stroke="#3C50E0"/>
<path d="M6.21477 33.8987L6.21798 33.9008C8.43339 35.3615 11.2853 36.1534 14.2399 36.1534C15.1749 36.1534 16.1141 36.0815 17.0561 35.9125C18.29 35.7007 19.0947 34.5279 18.8861 33.3059L18.8857 33.3039C18.6751 32.1 17.5078 31.2641 16.2791 31.4738C13.5099 31.9466 10.6122 31.4202 8.70822 30.1514C7.70812 29.477 7.24988 28.701 7.24988 28.0234C7.24988 27.3454 7.68535 26.5934 8.70518 25.9208C10.6322 24.6507 13.5521 24.1243 16.342 24.6183C17.5823 24.8577 18.7474 24.0096 18.9561 22.7875C19.1647 21.5654 18.3598 20.3925 17.1258 20.1808C13.215 19.4855 9.13774 20.2228 6.21586 22.1707L6.21477 22.1714C4.05476 23.6196 2.74988 25.745 2.74988 28.0234C2.74988 30.3241 4.05382 32.4499 6.21477 33.8987Z" fill="#3C50E0" stroke="#3C50E0"/>
<path d="M27.8561 36.3801V36.4269L28.3728 36.4097C32.8441 36.2607 36.3447 32.6318 36.3695 28.1427V28.14C36.3695 23.5938 32.6456 19.87 28.0995 19.87C23.5543 19.87 19.8295 23.5695 19.8295 28.14C19.8295 32.5673 23.263 36.1564 27.8561 36.3801ZM28.3328 36.3867C28.341 36.3867 28.3396 36.3868 28.3327 36.3867H28.3328ZM27.8561 35.91V35.9101C27.856 35.9064 27.8561 35.9043 27.8561 35.9044C27.8561 35.9045 27.8561 35.9062 27.8561 35.91ZM24.3295 28.1166C24.3295 26.0361 26.0189 24.3466 28.0995 24.3466C30.2025 24.3466 31.8914 26.058 31.8928 28.1141C31.871 30.1305 30.3408 31.7638 28.3683 31.8852C28.2641 31.8748 28.1624 31.8692 28.0761 31.8692C28.0286 31.8692 27.9742 31.8708 27.9219 31.8772C27.9105 31.8785 27.8964 31.8805 27.8805 31.8833C25.8746 31.7636 24.3295 30.1323 24.3295 28.1166Z" fill="#3C50E0" stroke="#3C50E0"/>
<path d="M36.3801 39.6006L36.3812 39.6013C38.5403 41.0488 39.8461 43.1506 39.8461 45.4533C39.8461 47.7271 38.569 49.8781 36.3796 51.3297C34.1149 52.8393 31.2149 53.6066 28.3328 53.6066C25.454 53.6066 22.5516 52.8641 20.2833 51.3279C18.1249 49.8804 16.8195 47.7789 16.8195 45.4766C16.8195 43.2026 18.0968 41.0515 20.2865 39.5999L36.3801 39.6006ZM36.3801 39.6006C34.1133 38.0894 31.2181 37.3466 28.3415 37.3466M36.3801 39.6006L28.3415 37.3466M28.3415 37.3466C25.4649 37.3466 22.5644 38.0894 20.2865 39.5998L28.3415 37.3466ZM22.7748 43.374L22.7754 43.3736C24.262 42.3898 26.2892 41.8757 28.3393 41.8729C30.3899 41.87 32.4019 42.3788 33.8619 43.3702L33.8634 43.3712C34.8689 44.0489 35.3228 44.8026 35.3228 45.4766C35.3228 46.1585 34.8827 46.9329 33.8675 47.6026L33.8675 47.6025L33.8633 47.6053C32.3902 48.5983 30.371 49.1124 28.3211 49.1124C26.2713 49.1124 24.2521 48.5983 22.7789 47.6053L22.7789 47.6053C21.7734 46.9277 21.3195 46.174 21.3195 45.4999C21.3195 44.818 21.7595 44.0436 22.7748 43.374Z" fill="#3C50E0" stroke="#3C50E0"/>
</svg>
