<svg width="94" height="95" viewBox="0 0 94 95" fill="none" xmlns="http://www.w3.org/2000/svg">
<path d="M71.8824 55.3334H80.25C81.1928 55.3334 81.6642 55.3334 81.9571 55.0405C82.25 54.7476 82.25 54.2762 82.25 53.3334V31.9167C82.25 30.0311 82.25 29.0883 81.6642 28.5025C81.0784 27.9167 80.1356 27.9167 78.25 27.9167H15.75C13.8644 27.9167 12.9216 27.9167 12.3358 28.5025C11.75 29.0883 11.75 30.0311 11.75 31.9167V54.3334C11.75 54.8048 11.75 55.0405 11.8964 55.187C12.0429 55.3334 12.2786 55.3334 12.75 55.3334H22.1176" stroke="white" stroke-width="2"/>
<path d="M23.5 82.0563L23.5 41.6667C23.5 40.7239 23.5 40.2525 23.7929 39.9596C24.0858 39.6667 24.5572 39.6667 25.5 39.6667L68.5 39.6667C69.4428 39.6667 69.9142 39.6667 70.2071 39.9596C70.5 40.2525 70.5 40.7239 70.5 41.6667L70.5 82.0563C70.5 82.3728 70.5 82.5311 70.3962 82.606C70.2924 82.6808 70.1422 82.6307 69.8419 82.5306L58.9081 78.886C58.8297 78.8599 58.7906 78.8469 58.75 78.8469C58.7094 78.8469 58.6702 78.8599 58.5919 78.886L47.1581 82.6973C47.0798 82.7234 47.0406 82.7365 47 82.7365C46.9594 82.7365 46.9202 82.7234 46.8419 82.6973L46.8419 82.6973L35.4081 78.886C35.3298 78.8599 35.2906 78.8469 35.25 78.8469C35.2094 78.8469 35.1702 78.8599 35.0919 78.886L24.1581 82.5306C23.8578 82.6307 23.7076 82.6808 23.6038 82.606C23.5 82.5311 23.5 82.3728 23.5 82.0563Z" stroke="white" stroke-width="2"/>
<path d="M70.5 27.9167V15.13C70.5 14.1219 70.5 13.6179 70.3038 13.2328C70.1312 12.8941 69.8559 12.6188 69.5172 12.4462C69.1321 12.25 68.6281 12.25 67.62 12.25H26.38C25.3719 12.25 24.8679 12.25 24.4828 12.4462C24.1441 12.6188 23.8688 12.8941 23.6962 13.2328C23.5 13.6179 23.5 14.1219 23.5 15.13V27.9167" stroke="white" stroke-width="2"/>
<path d="M39.1665 55.3333L50.9165 55.3333" stroke="white" stroke-width="2" stroke-linecap="round"/>
<path d="M39.1665 67.0833L56.7915 67.0833" stroke="white" stroke-width="2" stroke-linecap="round"/>
</svg>
