<svg width="66" height="66" viewBox="0 0 66 66" fill="none" xmlns="http://www.w3.org/2000/svg">
<path d="M50.4706 38.5H55.75C56.6928 38.5 57.1642 38.5 57.4571 38.2071C57.75 37.9142 57.75 37.4428 57.75 36.5V23.25C57.75 21.3644 57.75 20.4216 57.1642 19.8358C56.5784 19.25 55.6356 19.25 53.75 19.25H12.25C10.3644 19.25 9.42157 19.25 8.83579 19.8358C8.25 20.4216 8.25 21.3644 8.25 23.25V37.5C8.25 37.9714 8.25 38.2071 8.39645 38.3536C8.54289 38.5 8.7786 38.5 9.25 38.5H15.5294" stroke="#222222" stroke-width="2"/>
<path d="M16.5 57.0563L16.5 29.5C16.5 28.5572 16.5 28.0858 16.7929 27.7929C17.0858 27.5 17.5572 27.5 18.5 27.5L47.5 27.5C48.4428 27.5 48.9142 27.5 49.2071 27.7929C49.5 28.0858 49.5 28.5572 49.5 29.5L49.5 57.0563C49.5 57.3728 49.5 57.5311 49.3962 57.606C49.2924 57.6808 49.1422 57.6307 48.8419 57.5306L41.4081 55.0527C41.3298 55.0266 41.2906 55.0135 41.25 55.0135C41.2094 55.0135 41.1702 55.0266 41.0919 55.0527L33.1581 57.6973C33.0798 57.7234 33.0406 57.7365 33 57.7365C32.9594 57.7365 32.9202 57.7234 32.8419 57.6973L32.8419 57.6973L24.9081 55.0527C24.8298 55.0266 24.7906 55.0135 24.75 55.0135C24.7094 55.0135 24.6702 55.0266 24.5919 55.0527L17.1581 57.5306C16.8578 57.6307 16.7076 57.6808 16.6038 57.606C16.5 57.5311 16.5 57.3728 16.5 57.0563Z" stroke="#222222" stroke-width="2"/>
<path d="M49.5 19.25V11.13C49.5 10.1219 49.5 9.61786 49.3038 9.23282C49.1312 8.89413 48.8559 8.61876 48.5172 8.44619C48.1321 8.25 47.6281 8.25 46.62 8.25H19.38C18.3719 8.25 17.8679 8.25 17.4828 8.44619C17.1441 8.61876 16.8688 8.89413 16.6962 9.23282C16.5 9.61786 16.5 10.1219 16.5 11.13V19.25" stroke="#222222" stroke-width="2"/>
<path d="M27.5 38.5L35.75 38.5" stroke="#222222" stroke-width="2" stroke-linecap="round"/>
<path d="M27.5 46.75L39.875 46.75" stroke="#222222" stroke-width="2" stroke-linecap="round"/>
</svg>
