<svg width="40" height="41" viewBox="0 0 40 41" fill="none" xmlns="http://www.w3.org/2000/svg">
<path d="M19.8365 3.83862C19.4249 3.8792 19.043 4.07118 18.7648 4.37727C18.4867 4.68335 18.3321 5.08173 18.3309 5.49532V9.70319L10.6333 15.8701C10.4388 16.0249 10.2813 16.2211 10.1723 16.4445C10.0633 16.668 10.0056 16.913 10.0034 17.1616V20.5002H4.99551C4.55388 20.5018 4.13091 20.6785 3.81921 20.9913C3.50752 21.3042 3.33252 21.7277 3.33252 22.1694V35.5048C3.33252 36.4245 4.07583 37.1616 4.99551 37.1679H35.005C35.4455 37.1662 35.8675 36.9903 36.179 36.6788C36.4906 36.3673 36.6663 35.9454 36.668 35.5048V22.1694C36.6688 21.9501 36.6264 21.733 36.5433 21.5302C36.4602 21.3273 36.3379 21.1427 36.1835 20.9871C36.0291 20.8315 35.8455 20.7078 35.6433 20.6232C35.4411 20.5385 35.2242 20.4946 35.005 20.4938H29.9971V17.1552C29.9962 16.9093 29.941 16.6665 29.8354 16.4444C29.7297 16.2222 29.5763 16.0261 29.3861 15.8701L21.6695 9.69684V7.17104H23.3451C25.5183 7.12695 25.5183 3.88267 23.3451 3.83228H19.8365V3.83862ZM20.0065 12.6323L26.6648 17.9742V33.8354H21.6695V28.834C21.6695 28.3913 21.4937 27.9665 21.1806 27.6535C20.8676 27.3404 20.443 27.1646 20.0002 27.1646C19.5575 27.1646 19.1329 27.3404 18.8199 27.6535C18.5068 27.9665 18.3309 28.3913 18.3309 28.834V33.8354H13.3357V17.9615L20.0065 12.6323ZM6.6711 23.8324H10.0097V33.8354H6.6711V23.8324ZM29.9971 23.8324H33.3357V33.8354H29.9971V23.8324Z" fill="#3C50E0"/>
</svg>
