<svg width="20" height="17" viewBox="0 0 20 17" fill="none" xmlns="http://www.w3.org/2000/svg">
<path fill-rule="evenodd" clip-rule="evenodd" d="M8.8944 2.91659C5.83849 2.91659 3.36119 5.10386 3.36119 7.802C3.36119 10.5001 5.83849 12.6874 8.8944 12.6874C11.9503 12.6874 14.4276 10.5001 14.4276 7.802C14.4276 5.10386 11.9503 2.91659 8.8944 2.91659ZM1.78027 7.802C1.78027 4.33296 4.96538 1.52075 8.8944 1.52075C12.8234 1.52075 16.0085 4.33296 16.0085 7.802C16.0085 11.271 12.8234 14.0833 8.8944 14.0833C4.96538 14.0833 1.78027 11.271 1.78027 7.802Z" fill="#637381"/>
<path fill-rule="evenodd" clip-rule="evenodd" d="M12.8013 11.2518C13.11 10.9792 13.6105 10.9792 13.9192 11.2518L17.3577 14.2877C17.6664 14.5603 17.6664 15.0022 17.3577 15.2747C17.049 15.5473 16.5485 15.5473 16.2398 15.2747L12.8013 12.2388C12.4927 11.9662 12.4927 11.5243 12.8013 11.2518Z" fill="#637381"/>
</svg>
