<svg width="56" height="56" viewBox="0 0 56 56" fill="none" xmlns="http://www.w3.org/2000/svg">
<path d="M21.0003 53.5832H35.0003C41.3927 53.5832 46.0736 52.2196 49.1468 49.1464C52.22 46.0732 53.5837 41.3923 53.5837 34.9999V20.9999C53.5837 14.6075 52.22 9.92664 49.1468 6.85343C46.0736 3.78022 41.3927 2.41656 35.0003 2.41656H21.0003C14.6079 2.41656 9.92707 3.78022 6.85386 6.85343C3.78064 9.92664 2.41699 14.6075 2.41699 20.9999V34.9999C2.41699 41.3923 3.78064 46.0732 6.85386 49.1464C9.92707 52.2196 14.6079 53.5832 21.0003 53.5832ZM6.91699 20.9999C6.91699 15.6568 7.87259 12.1839 10.0285 10.028C12.1843 7.87216 15.6573 6.91656 21.0003 6.91656H35.0003C40.3434 6.91656 43.8163 7.87216 45.9722 10.028C48.1281 12.1839 49.0837 15.6568 49.0837 20.9999V34.9999C49.0837 40.343 48.1281 43.8159 45.9722 45.9718C43.8163 48.1276 40.3434 49.0832 35.0003 49.0832H21.0003C15.6573 49.0832 12.1843 48.1276 10.0285 45.9718C7.87259 43.8159 6.91699 40.343 6.91699 34.9999V20.9999Z" fill="#3C50E0" stroke="#ECEBEB"/>
<path d="M34.1035 43.1669C34.1035 44.3997 35.1207 45.4169 36.3535 45.4169C37.5863 45.4169 38.6035 44.3997 38.6035 43.1669V34.0669C38.6035 32.8341 37.5863 31.8169 36.3535 31.8169C35.1207 31.8169 34.1035 32.8341 34.1035 34.0669V43.1669Z" fill="#3C50E0" stroke="#ECEBEB"/>
<path d="M34.1035 17.3834C34.1035 18.6162 35.1207 19.6334 36.3535 19.6334C37.5863 19.6334 38.6035 18.6162 38.6035 17.3834V12.8334C38.6035 11.6006 37.5863 10.5834 36.3535 10.5834C35.1207 10.5834 34.1035 11.6006 34.1035 12.8334V17.3834Z" fill="#3C50E0" stroke="#ECEBEB"/>
<path d="M28.0381 23.4498C28.0381 28.0426 31.7619 31.7664 36.3548 31.7664C40.9233 31.7664 44.6714 28.0436 44.6714 23.4498C44.6714 18.857 40.9476 15.1331 36.3548 15.1331C31.7619 15.1331 28.0381 18.857 28.0381 23.4498ZM32.5381 23.4498C32.5381 21.3459 34.2509 19.6331 36.3548 19.6331C38.437 19.6331 40.1714 21.3477 40.1714 23.4498C40.1714 25.5536 38.4586 27.2664 36.3548 27.2664C34.2509 27.2664 32.5381 25.5536 32.5381 23.4498Z" fill="#3C50E0" stroke="#ECEBEB"/>
<path d="M17.3965 43.1669C17.3965 44.3997 18.4137 45.4169 19.6465 45.4169C20.907 45.4169 21.8965 44.3953 21.8965 43.1669V38.6169C21.8965 37.3841 20.8793 36.3669 19.6465 36.3669C18.4137 36.3669 17.3965 37.3841 17.3965 38.6169V43.1669Z" fill="#3C50E0" stroke="#ECEBEB"/>
<path d="M17.3965 21.9334C17.3965 23.1662 18.4137 24.1834 19.6465 24.1834C20.907 24.1834 21.8965 23.1619 21.8965 21.9334V12.8334C21.8965 11.6006 20.8793 10.5834 19.6465 10.5834C18.4137 10.5834 17.3965 11.6006 17.3965 12.8334V21.9334Z" fill="#3C50E0" stroke="#ECEBEB"/>
<path d="M11.3311 32.5501C11.3311 37.1429 15.0549 40.8668 19.6477 40.8668C24.2405 40.8668 27.9644 37.1429 27.9644 32.5501C27.9644 27.9573 24.2405 24.2335 19.6477 24.2335C15.0549 24.2335 11.3311 27.9573 11.3311 32.5501ZM15.8311 32.5501C15.8311 30.4463 17.5439 28.7335 19.6477 28.7335C21.7732 28.7335 23.4644 30.4445 23.4644 32.5501C23.4644 34.654 21.7516 36.3668 19.6477 36.3668C17.5439 36.3668 15.8311 34.654 15.8311 32.5501Z" fill="#3C50E0" stroke="#ECEBEB"/>
</svg>
