<svg width="56" height="30" viewBox="0 0 56 30" fill="none" xmlns="http://www.w3.org/2000/svg">
<g clip-path="url(#clip0_32_7212)">
<rect width="56" height="30" rx="15" fill="#E2E8F0"/>
<g filter="url(#filter0_dii_32_7212)">
<rect x="3" y="3" width="24" height="24" rx="12" fill="white"/>
<path d="M15.0002 19.6666C17.5775 19.6666 19.6668 17.5772 19.6668 14.9999C19.6668 12.4226 17.5775 10.3333 15.0002 10.3333C12.4228 10.3333 10.3335 12.4226 10.3335 14.9999C10.3335 17.5772 12.4228 19.6666 15.0002 19.6666Z" fill="#969AA1"/>
<path d="M14.9998 22.3067C14.6332 22.3067 14.3332 22.0334 14.3332 21.6667V21.6134C14.3332 21.2467 14.6332 20.9467 14.9998 20.9467C15.3665 20.9467 15.6665 21.2467 15.6665 21.6134C15.6665 21.9801 15.3665 22.3067 14.9998 22.3067ZM19.7598 20.4267C19.5865 20.4267 19.4198 20.3601 19.2865 20.2334L19.1998 20.1467C18.9398 19.8867 18.9398 19.4667 19.1998 19.2067C19.4598 18.9467 19.8798 18.9467 20.1398 19.2067L20.2265 19.2934C20.4865 19.5534 20.4865 19.9734 20.2265 20.2334C20.0998 20.3601 19.9332 20.4267 19.7598 20.4267ZM10.2398 20.4267C10.0665 20.4267 9.89984 20.3601 9.7665 20.2334C9.5065 19.9734 9.5065 19.5534 9.7665 19.2934L9.85317 19.2067C10.1132 18.9467 10.5332 18.9467 10.7932 19.2067C11.0532 19.4667 11.0532 19.8867 10.7932 20.1467L10.7065 20.2334C10.5798 20.3601 10.4065 20.4267 10.2398 20.4267ZM21.6665 15.6667H21.6132C21.2465 15.6667 20.9465 15.3667 20.9465 15.0001C20.9465 14.6334 21.2465 14.3334 21.6132 14.3334C21.9798 14.3334 22.3065 14.6334 22.3065 15.0001C22.3065 15.3667 22.0332 15.6667 21.6665 15.6667ZM8.3865 15.6667H8.33317C7.9665 15.6667 7.6665 15.3667 7.6665 15.0001C7.6665 14.6334 7.9665 14.3334 8.33317 14.3334C8.69984 14.3334 9.0265 14.6334 9.0265 15.0001C9.0265 15.3667 8.75317 15.6667 8.3865 15.6667ZM19.6732 10.9934C19.4998 10.9934 19.3332 10.9267 19.1998 10.8001C18.9398 10.5401 18.9398 10.1201 19.1998 9.86008L19.2865 9.77341C19.5465 9.51341 19.9665 9.51341 20.2265 9.77341C20.4865 10.0334 20.4865 10.4534 20.2265 10.7134L20.1398 10.8001C20.0132 10.9267 19.8465 10.9934 19.6732 10.9934ZM10.3265 10.9934C10.1532 10.9934 9.9865 10.9267 9.85317 10.8001L9.7665 10.7067C9.5065 10.4467 9.5065 10.0267 9.7665 9.76675C10.0265 9.50675 10.4465 9.50675 10.7065 9.76675L10.7932 9.85341C11.0532 10.1134 11.0532 10.5334 10.7932 10.7934C10.6665 10.9267 10.4932 10.9934 10.3265 10.9934ZM14.9998 9.02675C14.6332 9.02675 14.3332 8.75341 14.3332 8.38675V8.33341C14.3332 7.96675 14.6332 7.66675 14.9998 7.66675C15.3665 7.66675 15.6665 7.96675 15.6665 8.33341C15.6665 8.70008 15.3665 9.02675 14.9998 9.02675Z" fill="#969AA1"/>
</g>
</g>
<defs>
<filter id="filter0_dii_32_7212" x="-1" y="1" width="32" height="32" filterUnits="userSpaceOnUse" color-interpolation-filters="sRGB">
<feFlood flood-opacity="0" result="BackgroundImageFix"/>
<feColorMatrix in="SourceAlpha" type="matrix" values="0 0 0 0 0 0 0 0 0 0 0 0 0 0 0 0 0 0 127 0" result="hardAlpha"/>
<feOffset dy="2"/>
<feGaussianBlur stdDeviation="2"/>
<feComposite in2="hardAlpha" operator="out"/>
<feColorMatrix type="matrix" values="0 0 0 0 0 0 0 0 0 0 0 0 0 0 0 0 0 0 0.2 0"/>
<feBlend mode="multiply" in2="BackgroundImageFix" result="effect1_dropShadow_32_7212"/>
<feBlend mode="normal" in="SourceGraphic" in2="effect1_dropShadow_32_7212" result="shape"/>
<feColorMatrix in="SourceAlpha" type="matrix" values="0 0 0 0 0 0 0 0 0 0 0 0 0 0 0 0 0 0 127 0" result="hardAlpha"/>
<feOffset dy="-1"/>
<feGaussianBlur stdDeviation="0.5"/>
<feComposite in2="hardAlpha" operator="arithmetic" k2="-1" k3="1"/>
<feColorMatrix type="matrix" values="0 0 0 0 0 0 0 0 0 0 0 0 0 0 0 0 0 0 0.1 0"/>
<feBlend mode="multiply" in2="shape" result="effect2_innerShadow_32_7212"/>
<feColorMatrix in="SourceAlpha" type="matrix" values="0 0 0 0 0 0 0 0 0 0 0 0 0 0 0 0 0 0 127 0" result="hardAlpha"/>
<feOffset dy="2"/>
<feGaussianBlur stdDeviation="1"/>
<feComposite in2="hardAlpha" operator="arithmetic" k2="-1" k3="1"/>
<feColorMatrix type="matrix" values="0 0 0 0 1 0 0 0 0 1 0 0 0 0 1 0 0 0 1 0"/>
<feBlend mode="normal" in2="effect2_innerShadow_32_7212" result="effect3_innerShadow_32_7212"/>
</filter>
<clipPath id="clip0_32_7212">
<rect width="56" height="30" rx="15" fill="white"/>
</clipPath>
</defs>
</svg>
