<svg width="51" height="45" viewBox="0 0 51 45" fill="none" xmlns="http://www.w3.org/2000/svg">
<path d="M40.2747 12.9194C39.1613 13.4127 37.9653 13.746 36.708 13.8967C38.0053 13.1204 38.9759 11.8986 39.4387 10.4594C38.2198 11.1833 36.8858 11.693 35.4947 11.966C34.5592 10.9672 33.3201 10.3051 31.9698 10.0827C30.6195 9.86019 29.2335 10.0897 28.027 10.7357C26.8205 11.3816 25.861 12.4078 25.2975 13.655C24.734 14.9021 24.598 16.3004 24.9107 17.6327C22.4409 17.5087 20.0248 16.8668 17.8192 15.7486C15.6136 14.6304 13.6678 13.0609 12.108 11.142C11.5747 12.062 11.268 13.1287 11.268 14.2647C11.2674 15.2874 11.5192 16.2943 12.0012 17.1963C12.4831 18.0983 13.1802 18.8674 14.0307 19.4354C13.0444 19.404 12.0798 19.1375 11.2173 18.658V18.738C11.2172 20.1723 11.7134 21.5625 12.6216 22.6727C13.5298 23.7828 14.7941 24.5446 16.2 24.8287C15.285 25.0763 14.3258 25.1128 13.3947 24.9354C13.7913 26.1695 14.564 27.2487 15.6045 28.0219C16.645 28.7951 17.9012 29.2236 19.1973 29.2474C16.9971 30.9746 14.2798 31.9115 11.4827 31.9074C10.9872 31.9075 10.4921 31.8786 10 31.8207C12.8393 33.6463 16.1445 34.6151 19.52 34.6114C30.9467 34.6114 37.1933 25.1474 37.1933 16.9394C37.1933 16.6727 37.1867 16.4034 37.1747 16.1367C38.3897 15.258 39.4385 14.1699 40.272 12.9234L40.2747 12.9194V12.9194Z" fill="#3C50E0"/>
</svg>
