<svg width="350" height="350" viewBox="0 0 350 350" fill="none" xmlns="http://www.w3.org/2000/svg">
<path d="M33.5825 294.844L30.5069 282.723C25.0538 280.414 19.4747 278.414 13.7961 276.732L13.4079 282.365L11.8335 276.159C4.79107 274.148 0 273.263 0 273.263C0 273.263 6.46998 297.853 20.0448 316.653L35.8606 319.429L23.5737 321.2C25.2813 323.253 27.1164 325.196 29.0681 327.019C48.8132 345.334 70.806 353.736 78.1898 345.787C85.5736 337.838 75.5526 316.548 55.8074 298.235C49.6862 292.558 41.9968 288.001 34.2994 284.415L33.5825 294.844Z" fill="#F2F2F2"/>
<path d="M62.8315 281.679L66.4688 269.715C62.9955 264.921 59.2545 260.327 55.2635 255.954L52.0172 260.576L53.8795 254.45C48.8906 249.092 45.2472 245.86 45.2472 245.86C45.2472 245.86 38.0669 270.253 39.961 293.358L52.0641 303.904L40.6282 299.073C41.0283 301.712 41.5942 304.325 42.3226 306.894C49.7518 332.77 64.2319 351.323 74.6646 348.332C85.0972 345.341 87.5323 321.94 80.1031 296.063C77.8002 288.041 73.574 280.169 68.8402 273.123L62.8315 281.679Z" fill="#F2F2F2"/>
<path d="M243.68 82.9153H241.761V30.3972C241.761 26.4054 240.974 22.4527 239.445 18.7647C237.917 15.0768 235.676 11.7258 232.851 8.90314C230.027 6.0805 226.673 3.84145 222.982 2.31385C219.292 0.786245 215.336 0 211.341 0H99.9888C91.921 0 84.1836 3.20256 78.4788 8.90314C72.774 14.6037 69.5691 22.3354 69.5691 30.3972V318.52C69.5691 322.512 70.3559 326.465 71.8846 330.153C73.4134 333.841 75.6541 337.192 78.4788 340.015C81.3035 342.837 84.657 345.076 88.3477 346.604C92.0383 348.131 95.994 348.918 99.9888 348.918H211.341C219.409 348.918 227.146 345.715 232.851 340.014C238.556 334.314 241.761 326.582 241.761 318.52V120.299H243.679L243.68 82.9153Z" fill="#E6E6E6"/>
<path d="M212.569 7.90527H198.035C198.703 9.54293 198.958 11.3197 198.778 13.0791C198.597 14.8386 197.986 16.5266 196.999 17.9944C196.012 19.4623 194.678 20.665 193.116 21.4966C191.554 22.3282 189.811 22.7631 188.041 22.763H124.249C122.479 22.763 120.736 22.3279 119.174 21.4963C117.612 20.6647 116.279 19.4619 115.291 17.9941C114.304 16.5262 113.693 14.8382 113.513 13.0789C113.332 11.3196 113.587 9.54286 114.256 7.90527H100.68C94.6551 7.90527 88.8769 10.2969 84.6166 14.554C80.3563 18.8112 77.9629 24.5851 77.9629 30.6056V318.31C77.9629 324.331 80.3563 330.105 84.6166 334.362C88.8769 338.619 94.6551 341.011 100.68 341.011H212.569C218.594 341.011 224.372 338.619 228.632 334.362C232.893 330.105 235.286 324.331 235.286 318.31V318.31V30.6051C235.286 24.5847 232.892 18.8109 228.632 14.5539C224.372 10.2968 218.594 7.90527 212.569 7.90527V7.90527Z" fill="white"/>
<path d="M142.367 122.512C142.366 120.501 142.896 118.525 143.903 116.784C144.909 115.042 146.357 113.597 148.101 112.592C146.358 111.586 144.381 111.057 142.369 111.057C140.357 111.056 138.38 111.586 136.637 112.591C134.894 113.596 133.447 115.042 132.441 116.784C131.434 118.525 130.905 120.5 130.905 122.511C130.905 124.522 131.434 126.498 132.441 128.239C133.447 129.98 134.894 131.426 136.637 132.432C138.38 133.437 140.357 133.966 142.369 133.966C144.381 133.966 146.358 133.436 148.101 132.43C146.357 131.426 144.909 129.981 143.903 128.239C142.896 126.498 142.366 124.523 142.367 122.512V122.512Z" fill="#00A330"/>
<path d="M156.777 122.512C156.777 120.501 157.307 118.525 158.313 116.784C159.32 115.042 160.768 113.597 162.511 112.592C160.769 111.586 158.792 111.057 156.78 111.057C154.767 111.056 152.79 111.586 151.047 112.591C149.304 113.596 147.857 115.042 146.851 116.784C145.845 118.525 145.315 120.5 145.315 122.511C145.315 124.522 145.845 126.498 146.851 128.239C147.857 129.98 149.304 131.426 151.047 132.432C152.79 133.437 154.767 133.966 156.78 133.966C158.792 133.966 160.769 133.436 162.511 132.43C160.768 131.426 159.32 129.981 158.314 128.239C157.307 126.498 156.777 124.523 156.777 122.512V122.512Z" fill="#CCCCCC"/>
<path d="M170.861 133.966C177.192 133.966 182.324 128.838 182.324 122.512C182.324 116.186 177.192 111.057 170.861 111.057C164.53 111.057 159.398 116.186 159.398 122.512C159.398 128.838 164.53 133.966 170.861 133.966Z" fill="#3056D3"/>
<path d="M190.019 158.289H123.209C122.573 158.288 121.963 158.036 121.514 157.586C121.064 157.137 120.811 156.527 120.81 155.892V89.1317C120.811 88.4961 121.064 87.8868 121.514 87.4373C121.963 86.9879 122.573 86.7351 123.209 86.7344H190.019C190.655 86.7351 191.265 86.9879 191.714 87.4373C192.164 87.8868 192.417 88.4961 192.418 89.1317V155.892C192.417 156.527 192.164 157.137 191.714 157.586C191.265 158.036 190.655 158.288 190.019 158.289V158.289ZM123.209 87.6938C122.827 87.6942 122.462 87.8459 122.192 88.1155C121.922 88.3852 121.77 88.7508 121.77 89.1321V155.892C121.77 156.274 121.922 156.639 122.192 156.909C122.462 157.179 122.827 157.33 123.209 157.331H190.019C190.4 157.33 190.766 157.179 191.036 156.909C191.306 156.639 191.458 156.274 191.458 155.892V89.1321C191.458 88.7508 191.306 88.3852 191.036 88.1155C190.766 87.8459 190.4 87.6942 190.019 87.6938H123.209Z" fill="#CCCCCC"/>
<path d="M204.936 209.464H102.47V210.423H204.936V209.464Z" fill="#CCCCCC"/>
<path d="M105.706 203.477C107.494 203.477 108.942 202.029 108.942 200.243C108.942 198.457 107.494 197.01 105.706 197.01C103.919 197.01 102.47 198.457 102.47 200.243C102.47 202.029 103.919 203.477 105.706 203.477Z" fill="#3056D3"/>
<path d="M204.936 241.797H102.47V242.756H204.936V241.797Z" fill="#CCCCCC"/>
<path d="M105.706 235.81C107.494 235.81 108.942 234.363 108.942 232.577C108.942 230.791 107.494 229.343 105.706 229.343C103.919 229.343 102.47 230.791 102.47 232.577C102.47 234.363 103.919 235.81 105.706 235.81Z" fill="#3056D3"/>
<path d="M203.061 278.617H170.679C170.12 278.617 169.583 278.394 169.188 277.999C168.792 277.604 168.57 277.068 168.569 276.509V265.168C168.57 264.609 168.792 264.073 169.188 263.678C169.583 263.282 170.12 263.06 170.679 263.06H203.061C203.62 263.06 204.157 263.282 204.552 263.678C204.948 264.073 205.17 264.609 205.171 265.168V276.509C205.17 277.068 204.948 277.604 204.552 277.999C204.157 278.394 203.62 278.617 203.061 278.617V278.617Z" fill="#3056D3"/>
<path d="M116.262 203.477C118.049 203.477 119.498 202.029 119.498 200.243C119.498 198.457 118.049 197.01 116.262 197.01C114.475 197.01 113.026 198.457 113.026 200.243C113.026 202.029 114.475 203.477 116.262 203.477Z" fill="#3056D3"/>
<path d="M126.817 203.477C128.604 203.477 130.053 202.029 130.053 200.243C130.053 198.457 128.604 197.01 126.817 197.01C125.03 197.01 123.581 198.457 123.581 200.243C123.581 202.029 125.03 203.477 126.817 203.477Z" fill="#3056D3"/>
<path d="M116.262 235.81C118.049 235.81 119.498 234.363 119.498 232.577C119.498 230.791 118.049 229.343 116.262 229.343C114.475 229.343 113.026 230.791 113.026 232.577C113.026 234.363 114.475 235.81 116.262 235.81Z" fill="#3056D3"/>
<path d="M126.817 235.81C128.604 235.81 130.053 234.363 130.053 232.577C130.053 230.791 128.604 229.343 126.817 229.343C125.03 229.343 123.581 230.791 123.581 232.577C123.581 234.363 125.03 235.81 126.817 235.81Z" fill="#3056D3"/>
<path d="M264.743 229.309C264.973 229.414 265.194 229.537 265.404 229.678L286.432 220.709L287.183 215.174L295.585 215.123L295.089 227.818L267.334 235.152C267.275 235.345 267.205 235.534 267.124 235.719C266.723 236.574 266.077 237.292 265.269 237.783C264.461 238.273 263.525 238.514 262.581 238.475C261.636 238.435 260.724 238.118 259.959 237.563C259.194 237.007 258.61 236.239 258.281 235.353C257.952 234.467 257.892 233.504 258.109 232.584C258.326 231.664 258.81 230.829 259.5 230.183C260.19 229.538 261.056 229.11 261.989 228.954C262.922 228.799 263.88 228.922 264.743 229.309V229.309Z" fill="#FF8181"/>
<path d="M298.641 344.352H292.893L290.159 322.198L298.642 322.198L298.641 344.352Z" fill="#FF8181"/>
<path d="M288.788 342.711H299.873V349.685H281.808C281.808 347.835 282.543 346.062 283.852 344.754C285.161 343.446 286.937 342.711 288.788 342.711Z" fill="#1C2434"/>
<path d="M320.996 342.729L315.275 343.292L310.38 321.513L318.823 320.682L320.996 342.729Z" fill="#FF8181"/>
<path d="M311.029 342.061L322.06 340.975L322.744 347.916L304.767 349.685C304.677 348.774 304.768 347.854 305.034 346.977C305.3 346.101 305.736 345.285 306.318 344.577C306.899 343.869 307.614 343.283 308.423 342.851C309.231 342.419 310.116 342.151 311.029 342.061Z" fill="#1C2434"/>
<path d="M300.241 191.676C306.601 191.676 311.756 186.525 311.756 180.17C311.756 173.815 306.601 168.663 300.241 168.663C293.881 168.663 288.726 173.815 288.726 180.17C288.726 186.525 293.881 191.676 300.241 191.676Z" fill="#FF8181"/>
<path d="M291.609 339.872C291.115 339.873 290.637 339.7 290.258 339.383C289.879 339.066 289.625 338.626 289.539 338.14C286.564 321.637 276.839 267.676 276.607 266.181C276.602 266.147 276.599 266.112 276.599 266.077V262.054C276.599 261.907 276.645 261.764 276.73 261.645L278.015 259.847C278.076 259.761 278.156 259.69 278.249 259.639C278.342 259.588 278.445 259.559 278.551 259.555C285.875 259.211 309.862 258.206 311.021 259.652C312.185 261.106 311.774 265.512 311.679 266.38L311.684 266.471L322.46 335.337C322.545 335.886 322.409 336.447 322.083 336.897C321.757 337.347 321.267 337.651 320.719 337.743L313.988 338.851C313.487 338.931 312.973 338.829 312.541 338.563C312.108 338.297 311.786 337.885 311.632 337.402C309.55 330.754 302.57 308.394 300.15 299.741C300.135 299.686 300.101 299.639 300.053 299.608C300.005 299.576 299.948 299.564 299.892 299.572C299.836 299.58 299.784 299.608 299.747 299.651C299.71 299.694 299.69 299.749 299.691 299.806C299.811 308.054 300.104 329.098 300.204 336.366L300.215 337.149C300.22 337.679 300.025 338.191 299.67 338.584C299.315 338.978 298.824 339.224 298.296 339.274L291.806 339.863C291.74 339.869 291.674 339.872 291.609 339.872Z" fill="#1C2434"/>
<path d="M292.933 196.201C290.924 197.395 289.721 199.589 289.031 201.821C287.754 205.954 286.985 210.226 286.741 214.545L286.012 227.475L276.984 261.755C284.809 268.37 289.322 266.867 299.855 261.456C310.387 256.044 311.591 263.26 311.591 263.26L313.697 234.092L316.706 202.22C316.031 201.407 315.266 200.672 314.427 200.03C311.645 197.869 308.409 196.366 304.962 195.636C301.516 194.906 297.948 194.968 294.528 195.816L292.933 196.201Z" fill="#3056D3"/>
<path d="M289.622 236.294C289.865 236.386 290.1 236.496 290.326 236.624L311.118 226.225L311.463 220.591L320.04 220L320.5 232.843L292.713 242.025C292.486 242.997 291.969 243.878 291.229 244.549C290.489 245.22 289.562 245.65 288.572 245.782C287.581 245.914 286.574 245.742 285.684 245.288C284.794 244.834 284.063 244.12 283.589 243.241C283.115 242.363 282.92 241.36 283.03 240.368C283.14 239.375 283.549 238.44 284.204 237.686C284.859 236.931 285.728 236.394 286.696 236.146C287.664 235.897 288.684 235.949 289.622 236.294Z" fill="#FF8181"/>
<path d="M316.555 202.366C321.671 204.17 322.572 223.717 322.572 223.717C316.554 220.409 309.331 225.822 309.331 225.822C309.331 225.822 307.827 220.71 306.021 214.094C305.476 212.233 305.411 210.265 305.832 208.372C306.253 206.48 307.146 204.724 308.428 203.269C308.428 203.269 311.439 200.56 316.555 202.366Z" fill="#3056D3"/>
<path d="M289.463 174.923C289.393 175.034 289.327 175.146 289.265 175.257C289.207 173.937 289.221 172.613 289.307 171.293C289.431 170.226 290.284 169.051 292.025 167.902C293.757 166.76 296.283 165.702 299.552 164.85C302.621 164.05 304.959 165.367 306.573 166.946C307.38 167.736 307.994 168.581 308.406 169.231C308.611 169.555 308.765 169.828 308.867 170.019C308.918 170.115 308.956 170.19 308.981 170.24C308.993 170.265 309.002 170.283 309.008 170.295L309.014 170.308L309.015 170.311L309.015 170.311L309.015 170.311L309.015 170.311L309.089 170.47L309.246 170.548C310.218 171.034 310.889 172.059 311.301 173.423C311.71 174.779 311.837 176.395 311.778 177.928C311.719 179.461 311.476 180.874 311.17 181.816C311.021 182.274 310.873 182.575 310.754 182.729C309.815 182.079 308.77 182.43 308.086 182.816C307.896 182.923 307.721 183.04 307.566 183.154L306.523 173.773L306.467 173.272L305.966 173.332L305.966 173.332L305.966 173.332L305.966 173.332L305.962 173.332L305.948 173.334L305.889 173.341C305.836 173.347 305.758 173.355 305.657 173.366C305.455 173.386 305.16 173.415 304.791 173.446C304.054 173.508 303.023 173.579 301.85 173.615C299.492 173.686 296.608 173.612 294.382 173.057C293.137 172.746 292.112 172.864 291.281 173.256C290.459 173.644 289.874 174.278 289.463 174.923Z" fill="#3C4043" stroke="#3C4043"/>
</svg>
