<svg width="16" height="16" viewBox="0 0 16 16" fill="none" xmlns="http://www.w3.org/2000/svg">
<path fill-rule="evenodd" clip-rule="evenodd" d="M2.00016 9.33325C2.36835 9.33325 2.66683 9.63173 2.66683 9.99992V12.6666C2.66683 12.8434 2.73707 13.013 2.86209 13.138C2.98712 13.263 3.15669 13.3333 3.3335 13.3333H12.6668C12.8436 13.3333 13.0132 13.263 13.1382 13.138C13.2633 13.013 13.3335 12.8434 13.3335 12.6666V9.99992C13.3335 9.63173 13.632 9.33325 14.0002 9.33325C14.3684 9.33325 14.6668 9.63173 14.6668 9.99992V12.6666C14.6668 13.197 14.4561 13.7057 14.081 14.0808C13.706 14.4559 13.1973 14.6666 12.6668 14.6666H3.3335C2.80306 14.6666 2.29435 14.4559 1.91928 14.0808C1.54421 13.7057 1.3335 13.197 1.3335 12.6666V9.99992C1.3335 9.63173 1.63197 9.33325 2.00016 9.33325Z" fill="#3C50E0"/>
<path fill-rule="evenodd" clip-rule="evenodd" d="M7.5286 1.52851C7.78894 1.26816 8.21106 1.26816 8.4714 1.52851L11.8047 4.86185C12.0651 5.1222 12.0651 5.54431 11.8047 5.80466C11.5444 6.06501 11.1223 6.06501 10.8619 5.80466L8 2.94273L5.13807 5.80466C4.87772 6.06501 4.45561 6.06501 4.19526 5.80466C3.93491 5.54431 3.93491 5.1222 4.19526 4.86185L7.5286 1.52851Z" fill="#3C50E0"/>
<path fill-rule="evenodd" clip-rule="evenodd" d="M8.00016 1.33325C8.36835 1.33325 8.66683 1.63173 8.66683 1.99992V9.99992C8.66683 10.3681 8.36835 10.6666 8.00016 10.6666C7.63197 10.6666 7.3335 10.3681 7.3335 9.99992V1.99992C7.3335 1.63173 7.63197 1.33325 8.00016 1.33325Z" fill="#3C50E0"/>
</svg>
