<svg width="24" height="24" viewBox="0 0 24 24" fill="none" xmlns="http://www.w3.org/2000/svg">
<path d="M12 12.25C9.10614 12.25 6.75 9.89386 6.75 7C6.75 4.10614 9.10614 1.75 12 1.75C14.8939 1.75 17.25 4.10614 17.25 7C17.25 9.89386 14.8939 12.25 12 12.25ZM12 2.25C9.38386 2.25 7.25 4.38386 7.25 7C7.25 9.61614 9.38386 11.75 12 11.75C14.6161 11.75 16.75 9.61614 16.75 7C16.75 4.38386 14.6161 2.25 12 2.25Z" fill="white" stroke="white"/>
<path d="M14.9346 21.1935L14.9352 21.1896L15.125 19.8406C15.1251 19.8404 15.1251 19.8403 15.1251 19.8401C15.159 19.6038 15.3153 19.2907 15.4974 19.0996L19.0336 15.5635C19.6457 14.9514 20.1538 14.8725 20.5358 14.9408C20.9568 15.0161 21.3332 15.2901 21.6065 15.5635C22.0634 16.0203 22.2501 16.4603 22.2501 16.8499C22.2501 17.2473 22.0754 17.6574 21.6065 18.1263L18.0665 21.6663C17.8931 21.8398 17.5726 22.0001 17.3298 22.0349C17.3296 22.0349 17.3295 22.0349 17.3294 22.0349L15.9804 22.2247L15.9543 22.2284L15.9288 22.2348C15.8815 22.2466 15.8526 22.2499 15.8201 22.2499C15.5619 22.2499 15.3325 22.1552 15.1736 21.9963C14.9853 21.808 14.8859 21.5208 14.9346 21.1935ZM21.591 16.3305C21.5047 16.1854 21.3872 16.0445 21.2498 15.9125C21.0039 15.6672 20.697 15.4199 20.31 15.4199C19.8966 15.4199 19.5994 15.7034 19.3865 15.9163L15.8465 19.4563L16.2001 19.8099L15.8465 19.4563C15.769 19.5339 15.7193 19.6306 15.6983 19.6741C15.6834 19.7052 15.6674 19.7423 15.654 19.7825C15.6465 19.8051 15.6295 19.8576 15.6228 19.9247L15.4452 21.1586L15.3499 21.82L16.0113 21.7248L17.2613 21.5448L17.2866 21.5411L17.3113 21.5349C17.3905 21.5152 17.4681 21.4774 17.5089 21.4563C17.5416 21.4394 17.638 21.3891 17.7136 21.3135L21.2536 17.7734C21.3454 17.6817 21.4572 17.5588 21.5495 17.4221C21.6308 17.3016 21.7501 17.0946 21.7501 16.8499C21.7501 16.6504 21.6742 16.4703 21.591 16.3305Z" fill="white" stroke="white"/>
<path d="M20.9201 19.2198C20.8501 19.2198 20.7801 19.2099 20.7201 19.1899C19.4001 18.8199 18.3501 17.7699 17.9801 16.4499C17.8701 16.0499 18.1001 15.6399 18.5001 15.5299C18.9001 15.4199 19.3101 15.6499 19.4201 16.0499C19.6501 16.8699 20.3001 17.5199 21.1201 17.7499C21.5201 17.8599 21.7501 18.2799 21.6401 18.6699C21.5501 18.9999 21.2501 19.2198 20.9201 19.2198Z" fill="white"/>
<path d="M3.41016 22.75C3.00016 22.75 2.66016 22.41 2.66016 22C2.66016 17.73 6.85018 14.25 12.0002 14.25C13.0902 14.25 14.1702 14.41 15.1802 14.71C15.5802 14.83 15.8002 15.25 15.6802 15.64C15.5602 16.04 15.1402 16.26 14.7502 16.14C13.8702 15.88 12.9502 15.74 12.0002 15.74C7.68018 15.74 4.16016 18.54 4.16016 21.99C4.16016 22.41 3.82016 22.75 3.41016 22.75Z" fill="white"/>
</svg>
